<?xml version="1.0" encoding="UTF-8"?><svg id="Layer_2" xmlns="http://www.w3.org/2000/svg" viewBox="0 0 1364.8 210"><defs><style>.cls-1{stroke:#226e9c;stroke-dasharray:0 0 12 4;}.cls-1,.cls-2,.cls-3{stroke-miterlimit:10;}.cls-1,.cls-2,.cls-3,.cls-4{stroke-width:2px;}.cls-1,.cls-3,.cls-4{fill:none;}.cls-2{fill:#dc3977;}.cls-2,.cls-3,.cls-4{stroke:#000;}.cls-5,.cls-6,.cls-7,.cls-8{stroke-width:0px;}.cls-5,.cls-8{fill:#000;}.cls-6{fill:#fd8d3c;}.cls-4{stroke-dasharray:0 0 12 6;stroke-linejoin:round;}.cls-7{fill:#fff;}.cls-8{fill-rule:evenodd;}</style></defs><g id="Layer_1-2"><path class="cls-5" d="M49.1,59.5c3.7,0,6.7,3,6.7,6.7s-3,6.7-6.7,6.7-6.7-3-6.7-6.7,3-6.7,6.7-6.7M49.1,57.5c-4.8,0-8.7,3.9-8.7,8.7s3.9,8.7,8.7,8.7,8.7-3.9,8.7-8.7-3.9-8.7-8.7-8.7h0Z"/><path class="cls-5" d="M8.7,84.9c3.7,0,6.7,3,6.7,6.7s-3,6.7-6.7,6.7-6.7-3-6.7-6.7,3-6.7,6.7-6.7M8.7,82.9c-4.8,0-8.7,3.9-8.7,8.7s3.9,8.7,8.7,8.7,8.7-3.9,8.7-8.7-3.9-8.7-8.7-8.7h0Z"/><path class="cls-5" d="M76.1,86.4c3.7,0,6.7,3,6.7,6.7s-3,6.7-6.7,6.7-6.7-3-6.7-6.7,3-6.7,6.7-6.7M76.1,84.4c-4.8,0-8.7,3.9-8.7,8.7s3.9,8.7,8.7,8.7,8.7-3.9,8.7-8.7-3.9-8.7-8.7-8.7h0Z"/><path class="cls-5" d="M12.7,126.1c3.7,0,6.7,3,6.7,6.7s-3,6.7-6.7,6.7-6.7-3-6.7-6.7,3-6.7,6.7-6.7M12.7,124.1c-4.8,0-8.7,3.9-8.7,8.7s3.9,8.7,8.7,8.7,8.7-3.9,8.7-8.7-3.9-8.7-8.7-8.7h0Z"/><path class="cls-5" d="M54.7,126.1c3.7,0,6.7,3,6.7,6.7s-3,6.7-6.7,6.7-6.7-3-6.7-6.7,3-6.7,6.7-6.7M54.7,124.1c-4.8,0-8.7,3.9-8.7,8.7s3.9,8.7,8.7,8.7,8.7-3.9,8.7-8.7-3.9-8.7-8.7-8.7h0Z"/><path class="cls-5" d="M40.4,96.7c3.7,0,6.7,3,6.7,6.7s-3,6.7-6.7,6.7-6.7-3-6.7-6.7,3-6.7,6.7-6.7M40.4,94.7c-4.8,0-8.7,3.9-8.7,8.7s3.9,8.7,8.7,8.7,8.7-3.9,8.7-8.7-3.9-8.7-8.7-8.7h0Z"/><path class="cls-5" d="M43.5,102c0,2.5-1.2,5.6-3.4,5.6s-2-1.2-2-2.7c0-2.6,1.4-5.4,3.4-5.4s1.9,1.2,1.9,2.4ZM39.2,105c0,.8.2,1.8,1.1,1.8,1.5,0,2.3-3.2,2.3-4.7s0-1.7-1-1.7c-1.4,0-2.3,2.7-2.3,4.6Z"/><path class="cls-5" d="M76.8,90.2h0l-1.3.7v-.8c-.1,0,1.7-.9,1.7-.9h.8l-1.5,7.8h-1l1.3-6.8Z"/><path class="cls-5" d="M46.5,70.3v-.7c.1,0,1.3-1,1.3-1,2.1-1.8,3.3-3,3.3-4.3s-.3-1.2-1.2-1.2-1.2.3-1.6.6l-.3-.7c.5-.4,1.4-.7,2.1-.7,1.5,0,2,1,2,1.9,0,1.7-1.5,3.1-3.4,4.6l-.7.5h0s3.3,0,3.3,0l-.2.9h-4.7Z"/><path class="cls-5" d="M6,94.2c.3.2.8.4,1.5.4,1.3,0,1.9-.9,1.9-1.7s-.8-1.4-1.7-1.4h-.4l.2-.8h.4c.7,0,1.9-.5,1.9-1.5s-.4-1-1.1-1-1.1.2-1.5.4l-.2-.8c.5-.3,1.2-.5,1.9-.5,1.3,0,2,.8,2,1.7s-.8,1.8-1.7,2h0c.9.2,1.3,1,1.3,1.8,0,1.5-1.3,2.6-3,2.6s-1.5-.3-1.8-.5l.3-.8Z"/><path class="cls-5" d="M12.6,137.3l.4-2.1h-3.4v-.7c.1,0,4.3-5,4.3-5h1.1l-.9,4.9h1.1l-.2.8h-1.1l-.4,2.1h-.9ZM13.1,134.4l.5-2.6c0-.4.2-.8.3-1.2h0c-.3.5-.5.9-.9,1.3l-2.2,2.5h0s2.3,0,2.3,0Z"/><path class="cls-5" d="M57.1,130.4h-2.7l-.6,2c.1,0,.2,0,.4,0,.4,0,.9.1,1.4.4.6.4.9,1,.9,1.7,0,1.9-1.5,3-3.2,3s-1.4-.2-1.7-.4l.3-.8c.3.2.8.4,1.5.4,1.1,0,2.1-.9,2.1-2s-.4-1.5-1.9-1.5-.6,0-.9,0l1.1-3.7h3.5l-.2.9Z"/><path class="cls-5" d="M1068.7,61.2c3.7,0,6.7,3,6.7,6.7s-3,6.7-6.7,6.7-6.7-3-6.7-6.7,3-6.7,6.7-6.7M1068.7,59.2c-4.8,0-8.7,3.9-8.7,8.7s3.9,8.7,8.7,8.7,8.7-3.9,8.7-8.7-3.9-8.7-8.7-8.7h0Z"/><path class="cls-5" d="M1028.3,86.6c3.7,0,6.7,3,6.7,6.7s-3,6.7-6.7,6.7-6.7-3-6.7-6.7,3-6.7,6.7-6.7M1028.3,84.6c-4.8,0-8.7,3.9-8.7,8.7s3.9,8.7,8.7,8.7,8.7-3.9,8.7-8.7-3.9-8.7-8.7-8.7h0Z"/><path class="cls-5" d="M1095.6,88.2c3.7,0,6.7,3,6.7,6.7s-3,6.7-6.7,6.7-6.7-3-6.7-6.7,3-6.7,6.7-6.7M1095.6,86.2c-4.8,0-8.7,3.9-8.7,8.7s3.9,8.7,8.7,8.7,8.7-3.9,8.7-8.7-3.9-8.7-8.7-8.7h0Z"/><path class="cls-5" d="M1032.2,127.8c3.7,0,6.7,3,6.7,6.7s-3,6.7-6.7,6.7-6.7-3-6.7-6.7,3-6.7,6.7-6.7M1032.2,125.8c-4.8,0-8.7,3.9-8.7,8.7s3.9,8.7,8.7,8.7,8.7-3.9,8.7-8.7-3.9-8.7-8.7-8.7h0Z"/><path class="cls-5" d="M1074.2,127.8c3.7,0,6.7,3,6.7,6.7s-3,6.7-6.7,6.7-6.7-3-6.7-6.7,3-6.7,6.7-6.7M1074.2,125.8c-4.8,0-8.7,3.9-8.7,8.7s3.9,8.7,8.7,8.7,8.7-3.9,8.7-8.7-3.9-8.7-8.7-8.7h0Z"/><path class="cls-5" d="M1060,98.5c3.7,0,6.7,3,6.7,6.7s-3,6.7-6.7,6.7-6.7-3-6.7-6.7,3-6.7,6.7-6.7M1060,96.5c-4.8,0-8.7,3.9-8.7,8.7s3.9,8.7,8.7,8.7,8.7-3.9,8.7-8.7-3.9-8.7-8.7-8.7h0Z"/><line class="cls-3" x1="1066.3" y1="75.9" x2="1061.5" y2="97.3"/><line class="cls-3" x1="1061.5" y1="71.9" x2="1034.6" y2="88.5"/><line class="cls-3" x1="1035.4" y1="96.5" x2="1052" y2="102.8"/><line class="cls-3" x1="1028.3" y1="101.2" x2="1030.6" y2="126.6"/><line class="cls-3" x1="1040.9" y1="134.5" x2="1065.5" y2="134.5"/><line class="cls-3" x1="1071" y1="127.4" x2="1063.9" y2="112.3"/><line class="cls-3" x1="1037" y1="128.2" x2="1054.4" y2="110.7"/><line class="cls-3" x1="1067.9" y1="102.8" x2="1087.7" y2="97.3"/><path class="cls-5" d="M1063,103.7c0,2.5-1.2,5.6-3.4,5.6s-2-1.2-2-2.7c0-2.6,1.4-5.4,3.4-5.4s1.9,1.2,1.9,2.4ZM1058.7,106.7c0,.8.2,1.8,1.1,1.8,1.5,0,2.3-3.2,2.3-4.7s0-1.7-1-1.7c-1.4,0-2.3,2.7-2.3,4.6Z"/><path class="cls-5" d="M1096.4,91.9h0l-1.3.7v-.8c-.1,0,1.7-.9,1.7-.9h.8l-1.5,7.8h-1l1.3-6.8Z"/><path class="cls-5" d="M1066,72v-.7c.1,0,1.3-1,1.3-1,2.1-1.8,3.3-3,3.3-4.3s-.3-1.2-1.2-1.2-1.2.3-1.6.6l-.3-.7c.5-.4,1.4-.7,2.1-.7,1.5,0,2,1,2,1.9,0,1.7-1.5,3.1-3.4,4.6l-.7.5h0s3.3,0,3.3,0l-.2.9h-4.7Z"/><path class="cls-5" d="M1025.5,95.9c.3.2.8.4,1.5.4,1.3,0,1.9-.9,1.9-1.7s-.8-1.4-1.7-1.4h-.4l.2-.8h.4c.7,0,1.9-.5,1.9-1.5s-.4-1-1.1-1-1.1.2-1.5.4l-.2-.8c.5-.3,1.2-.5,1.9-.5,1.3,0,2,.8,2,1.7s-.8,1.8-1.7,2h0c.9.2,1.3,1,1.3,1.8,0,1.5-1.3,2.6-3,2.6s-1.5-.3-1.8-.5l.3-.8Z"/><path class="cls-5" d="M1032.1,139l.4-2.1h-3.4v-.7c.1,0,4.3-5,4.3-5h1.1l-.9,4.9h1.1l-.2.8h-1.1l-.4,2.1h-.9ZM1032.6,136.1l.5-2.6c0-.4.2-.8.3-1.2h0c-.3.5-.5.9-.9,1.3l-2.2,2.5h0s2.3,0,2.3,0Z"/><path class="cls-5" d="M1076.7,132.1h-2.7l-.6,2c.1,0,.2,0,.4,0,.4,0,.9.1,1.4.4.6.4.9,1,.9,1.7,0,1.9-1.5,3-3.2,3s-1.4-.2-1.7-.4l.3-.8c.3.2.8.4,1.5.4,1.1,0,2.1-.9,2.1-2s-.4-1.5-1.9-1.5-.6,0-.9,0l1.1-3.7h3.5l-.2.9Z"/><line class="cls-3" x1="1074.9" y1="73" x2="1090.9" y2="89"/><line class="cls-3" x1="1093.9" y1="103" x2="1077.9" y2="127"/><line class="cls-3" x1="1089.9" y1="101" x2="1039.9" y2="131"/><line class="cls-3" x1="1033.9" y1="99" x2="1066.9" y2="131"/><line class="cls-3" x1="1036.9" y1="93" x2="1087.9" y2="92"/><line class="cls-3" x1="1033.9" y1="127" x2="1063.9" y2="75"/><line class="cls-3" x1="1069.9" y1="76" x2="1073.9" y2="126"/><rect class="cls-3" x="1140.9" y="63" width="67" height="74"/><line class="cls-3" x1="1140.9" y1="124.7" x2="1207.9" y2="124.7"/><line class="cls-3" x1="1140.9" y1="112.3" x2="1207.9" y2="112.3"/><line class="cls-3" x1="1140.9" y1="100" x2="1207.9" y2="100"/><line class="cls-3" x1="1140.9" y1="87.7" x2="1207.9" y2="87.7"/><line class="cls-3" x1="1140.9" y1="75.3" x2="1207.9" y2="75.3"/><line class="cls-3" x1="1196.7" y1="63" x2="1196.7" y2="137"/><line class="cls-3" x1="1185.6" y1="63" x2="1185.6" y2="137"/><line class="cls-3" x1="1174.4" y1="63" x2="1174.4" y2="137"/><line class="cls-3" x1="1163.2" y1="63" x2="1163.2" y2="137"/><line class="cls-3" x1="1152.1" y1="63" x2="1152.1" y2="137"/><path class="cls-5" d="M1149.8,55.1c0,2.5-1.2,5.6-3.4,5.6s-2-1.2-2-2.7c0-2.6,1.4-5.4,3.4-5.4s1.9,1.2,1.9,2.4ZM1145.4,58.1c0,.8.2,1.8,1.1,1.8,1.5,0,2.3-3.2,2.3-4.7s0-1.7-1-1.7c-1.4,0-2.3,2.7-2.3,4.6Z"/><path class="cls-5" d="M1158.6,53.8h0l-1.3.7v-.8c-.1,0,1.7-.9,1.7-.9h.8l-1.5,7.8h-1l1.3-6.8Z"/><path class="cls-5" d="M1166.3,60.5v-.7c.1,0,1.3-1,1.3-1,2.1-1.8,3.3-3,3.3-4.3s-.3-1.2-1.2-1.2-1.2.3-1.6.6l-.3-.7c.5-.4,1.3-.7,2.1-.7,1.5,0,2,1,2,1.9,0,1.7-1.5,3.1-3.4,4.6l-.7.5h0s3.3,0,3.3,0l-.2.9h-4.7Z"/><path class="cls-5" d="M1178.1,59.4c.3.2.8.4,1.5.4,1.3,0,1.9-.9,1.9-1.7s-.8-1.4-1.7-1.4h-.4l.2-.8h.4c.7,0,1.9-.5,1.9-1.5s-.4-1-1.1-1-1.1.2-1.5.4l-.2-.8c.5-.3,1.2-.5,1.9-.5,1.3,0,2,.8,2,1.7s-.8,1.8-1.7,2h0c.9.2,1.3,1,1.3,1.8,0,1.5-1.3,2.6-3,2.6s-1.5-.3-1.8-.5l.3-.8Z"/><path class="cls-5" d="M1191.9,60.5l.4-2.1h-3.4v-.7c.1,0,4.3-5,4.3-5h1.1l-.9,4.9h1.1l-.2.8h-1.1l-.4,2.1h-.9ZM1192.4,57.6l.5-2.6c0-.4.2-.8.3-1.2h0c-.3.5-.5.9-.9,1.3l-2.2,2.5h0s2.3,0,2.3,0Z"/><path class="cls-5" d="M1205.7,53.6h-2.7l-.6,2c.1,0,.2,0,.4,0,.4,0,.9.1,1.4.4.6.4.9,1,.9,1.7,0,1.9-1.5,3-3.2,3s-1.4-.2-1.7-.4l.3-.8c.3.2.8.4,1.5.4,1.1,0,2.1-.9,2.1-2s-.4-1.5-1.9-1.5-.6,0-.9,0l1.1-3.7h3.5l-.2.9Z"/><path class="cls-5" d="M1136.5,67.2c0,2.5-1.2,5.6-3.4,5.6s-2-1.2-2-2.7c0-2.6,1.4-5.4,3.4-5.4s1.9,1.2,1.9,2.4ZM1132.2,70.1c0,.8.2,1.8,1.1,1.8,1.5,0,2.3-3.2,2.3-4.7s0-1.7-1-1.7c-1.4,0-2.3,2.7-2.3,4.6Z"/><path class="cls-5" d="M1134.1,78.3h0l-1.3.7v-.8c-.1,0,1.7-.9,1.7-.9h.8l-1.5,7.8h-1l1.3-6.8Z"/><path class="cls-5" d="M1130.7,97.6v-.7c.1,0,1.3-1,1.3-1,2.1-1.8,3.3-3,3.3-4.3s-.3-1.2-1.2-1.2-1.2.3-1.6.6l-.3-.7c.5-.4,1.3-.7,2.1-.7,1.5,0,2,1,2,1.9,0,1.7-1.5,3.1-3.4,4.6l-.7.5h0s3.3,0,3.3,0l-.2.9h-4.7Z"/><path class="cls-5" d="M1131.2,108.9c.3.2.8.4,1.5.4,1.3,0,1.9-.9,1.9-1.7s-.8-1.4-1.7-1.4h-.4l.2-.8h.4c.7,0,1.9-.5,1.9-1.5s-.4-1-1.1-1-1.1.2-1.5.4l-.2-.8c.5-.3,1.2-.5,1.9-.5,1.3,0,2,.8,2,1.7s-.8,1.8-1.7,2h0c.9.2,1.3,1,1.3,1.8,0,1.5-1.3,2.6-3,2.6s-1.5-.3-1.8-.5l.3-.8Z"/><path class="cls-5" d="M1133.8,122.6l.4-2.1h-3.4v-.7c.1,0,4.3-5,4.3-5h1.1l-.9,4.9h1.1l-.2.8h-1.1l-.4,2.1h-.9ZM1134.3,119.6l.5-2.6c0-.4.2-.8.3-1.2h0c-.3.5-.5.9-.9,1.3l-2.2,2.5h0s2.3,0,2.3,0Z"/><path class="cls-5" d="M1136.3,128.1h-2.7l-.6,2c.1,0,.2,0,.4,0,.4,0,.9.1,1.4.4.6.4.9,1,.9,1.7,0,1.9-1.5,3-3.2,3s-1.4-.2-1.7-.4l.3-.8c.3.2.8.4,1.5.4,1.1,0,2.1-.9,2.1-2s-.4-1.5-1.9-1.5-.6,0-.9,0l1.1-3.7h3.5l-.2.9Z"/><path class="cls-5" d="M1133.6,54.7l.5,3.3c0,.7.2,1.1.2,1.4h0c.1-.3.3-.7.6-1.4l1.8-3.4h1.1l-3.2,5.8h-1l-1-5.8h1Z"/><path class="cls-5" d="M1117.2,142.9v8.1h-1v-8.1h1Z"/><path class="cls-5" d="M1119.1,146.8c0-.6,0-1.1,0-1.6h.9v1h0c.3-.5,1-1.1,1.9-1.1s2,.5,2,2.5v3.5h-1v-3.3c0-.9-.4-1.7-1.3-1.7s-1.2.5-1.4,1.1c0,.1,0,.3,0,.5v3.5h-1v-4.2Z"/><path class="cls-5" d="M1125.9,151v-5h-.8v-.8h.8v-.3c0-.8.3-1.5.8-2,.5-.4,1-.6,1.9-.6s1.3.1,1.7.4v8.3h-1v-7.7c-.2,0-.5-.2-.9-.2-1.1,0-1.5.8-1.5,1.7v.3h1.4v.8h-1.4v5h-1Z"/><path class="cls-5" d="M1136.9,149.4c0,.6,0,1.1,0,1.6h-.9v-.9h0c-.3.5-.9,1.1-1.9,1.1s-2-.5-2-2.5v-3.4h1v3.2c0,1.1.3,1.9,1.3,1.9s1.2-.5,1.4-1c0-.2,0-.3,0-.5v-3.6h1v4.2Z"/><path class="cls-5" d="M1139.3,148.3c0,1.4.9,2,2,2s1.2-.1,1.6-.3l.2.8c-.4.2-1,.4-1.9.4-1.8,0-2.9-1.2-2.9-2.9s1-3.1,2.7-3.1,2.4,1.7,2.4,2.7,0,.4,0,.5h-4.1ZM1142.4,147.5c0-.7-.3-1.7-1.5-1.7s-1.5,1-1.6,1.7h3.1Z"/><path class="cls-5" d="M1144.7,146.8c0-.6,0-1.1,0-1.6h.9v1h0c.3-.5,1-1.1,1.9-1.1s2,.5,2,2.5v3.5h-1v-3.3c0-.9-.4-1.7-1.3-1.7s-1.2.5-1.4,1.1c0,.1,0,.3,0,.5v3.5h-1v-4.2Z"/><path class="cls-5" d="M1155.5,150.8c-.3.1-.9.3-1.7.3-1.7,0-2.9-1.2-2.9-3s1.2-3.1,3.1-3.1,1.2.2,1.5.3l-.2.8c-.3-.1-.7-.3-1.2-.3-1.3,0-2,1-2,2.2,0,1.3.9,2.2,2,2.2s1-.1,1.3-.3l.2.8Z"/><path class="cls-5" d="M1157.3,148.3c0,1.4.9,2,2,2s1.2-.1,1.6-.3l.2.8c-.4.2-1,.4-1.9.4-1.8,0-2.9-1.2-2.9-2.9s1-3.1,2.7-3.1,2.4,1.7,2.4,2.7,0,.4,0,.5h-4.1ZM1160.3,147.5c0-.7-.3-1.7-1.5-1.7s-1.5,1-1.6,1.7h3.1Z"/><path class="cls-5" d="M1165.6,145.2l1.1,3.3c.2.5.3,1,.5,1.5h0c.1-.5.3-1,.5-1.5l1.1-3.3h1.1l-2.3,5.8h-1l-2.2-5.8h1.1Z"/><path class="cls-5" d="M1174.2,151v-.7h-.1c-.3.5-.9.9-1.8.9s-1.8-.8-1.8-1.7c0-1.4,1.2-2.2,3.5-2.2h0c0-.6-.1-1.5-1.3-1.5-.5,0-1.1.2-1.5.4l-.2-.7c.5-.3,1.2-.5,1.9-.5,1.8,0,2.2,1.2,2.2,2.4v2.2c0,.5,0,1,0,1.4h-1ZM1174,148c-1.1,0-2.4.2-2.4,1.3s.5,1,1,1c.8,0,1.2-.5,1.4-1,0-.1,0-.2,0-.3v-1Z"/><path class="cls-5" d="M1176.7,142.5h1v8.5h-1v-8.5Z"/><path class="cls-5" d="M1184.4,149.4c0,.6,0,1.1,0,1.6h-.9v-.9h0c-.3.5-.9,1.1-1.9,1.1s-2-.5-2-2.5v-3.4h1v3.2c0,1.1.3,1.9,1.3,1.9s1.2-.5,1.4-1c0-.2,0-.3,0-.5v-3.6h1v4.2Z"/><path class="cls-5" d="M1186.8,148.3c0,1.4.9,2,2,2s1.2-.1,1.6-.3l.2.8c-.4.2-1,.4-1.9.4-1.8,0-2.9-1.2-2.9-2.9s1-3.1,2.7-3.1,2.4,1.7,2.4,2.7,0,.4,0,.5h-4.1ZM1189.9,147.5c0-.7-.3-1.7-1.5-1.7s-1.5,1-1.6,1.7h3.1Z"/><path class="cls-5" d="M1194.7,146.8c0-.6,0-1.1,0-1.6h.9v.9h0c.3-.6.9-1.1,1.8-1.1s1.4.5,1.6,1.2h0c.2-.3.4-.6.7-.8.4-.3.7-.4,1.3-.4.8,0,1.9.5,1.9,2.5v3.4h-1v-3.3c0-1.1-.4-1.8-1.3-1.8s-1.1.4-1.3.9c0,.2,0,.3,0,.5v3.6h-1v-3.5c0-.9-.4-1.6-1.2-1.6s-1.1.5-1.3,1.1c0,.2,0,.3,0,.5v3.5h-1v-4.2Z"/><path class="cls-5" d="M1208,151v-.7h-.1c-.3.5-.9.9-1.8.9s-1.8-.8-1.8-1.7c0-1.4,1.2-2.2,3.5-2.2h0c0-.6-.1-1.5-1.3-1.5-.5,0-1.1.2-1.5.4l-.2-.7c.5-.3,1.2-.5,1.9-.5,1.8,0,2.2,1.2,2.2,2.4v2.2c0,.5,0,1,0,1.4h-1ZM1207.8,148c-1.1,0-2.4.2-2.4,1.3s.5,1,1,1c.8,0,1.2-.5,1.4-1,0-.1,0-.2,0-.3v-1Z"/><path class="cls-5" d="M1211.7,143.5v1.7h1.5v.8h-1.5v3.1c0,.7.2,1.1.8,1.1s.5,0,.6,0v.8c-.2,0-.5.1-.9.1s-.9-.2-1.1-.4c-.3-.3-.4-.8-.4-1.5v-3.2h-.9v-.8h.9v-1.4l1-.3Z"/><path class="cls-5" d="M1214.4,147c0-.7,0-1.3,0-1.8h.9v1.1h0c.3-.8.9-1.3,1.6-1.3s.2,0,.3,0v1c-.1,0-.2,0-.4,0-.7,0-1.3.6-1.4,1.3,0,.1,0,.3,0,.5v3.1h-1v-4Z"/><path class="cls-5" d="M1219.6,143.6c0,.4-.3.7-.7.7s-.6-.3-.6-.7.3-.7.7-.7.6.3.7.7ZM1218.4,151v-5.8h1v5.8h-1Z"/><path class="cls-5" d="M1221.7,145.2l.8,1.2c.2.3.4.6.6.9h0c.2-.3.4-.6.6-1l.8-1.2h1.1l-2,2.8,2,3h-1.2l-.9-1.3c-.2-.3-.4-.7-.6-1h0c-.2.4-.4.7-.6,1l-.8,1.3h-1.2l2.1-3-2-2.8h1.2Z"/><rect class="cls-4" x="997.9" y="40" width="243.9" height="127" rx="15.2" ry="15.2"/><path class="cls-5" d="M1329.1,65.5c3.7,0,6.7,3,6.7,6.7s-3,6.7-6.7,6.7-6.7-3-6.7-6.7,3-6.7,6.7-6.7M1329.1,63.5c-4.8,0-8.7,3.9-8.7,8.7s3.9,8.7,8.7,8.7,8.7-3.9,8.7-8.7-3.9-8.7-8.7-8.7h0Z"/><path class="cls-5" d="M1288.7,90.9c3.7,0,6.7,3,6.7,6.7s-3,6.7-6.7,6.7-6.7-3-6.7-6.7,3-6.7,6.7-6.7M1288.7,88.9c-4.8,0-8.7,3.9-8.7,8.7s3.9,8.7,8.7,8.7,8.7-3.9,8.7-8.7-3.9-8.7-8.7-8.7h0Z"/><path class="cls-5" d="M1356.1,92.4c3.7,0,6.7,3,6.7,6.7s-3,6.7-6.7,6.7-6.7-3-6.7-6.7,3-6.7,6.7-6.7M1356.1,90.4c-4.8,0-8.7,3.9-8.7,8.7s3.9,8.7,8.7,8.7,8.7-3.9,8.7-8.7-3.9-8.7-8.7-8.7h0Z"/><path class="cls-5" d="M1292.7,132.1c3.7,0,6.7,3,6.7,6.7s-3,6.7-6.7,6.7-6.7-3-6.7-6.7,3-6.7,6.7-6.7M1292.7,130.1c-4.8,0-8.7,3.9-8.7,8.7s3.9,8.7,8.7,8.7,8.7-3.9,8.7-8.7-3.9-8.7-8.7-8.7h0Z"/><path class="cls-5" d="M1334.7,132.1c3.7,0,6.7,3,6.7,6.7s-3,6.7-6.7,6.7-6.7-3-6.7-6.7,3-6.7,6.7-6.7M1334.7,130.1c-4.8,0-8.7,3.9-8.7,8.7s3.9,8.7,8.7,8.7,8.7-3.9,8.7-8.7-3.9-8.7-8.7-8.7h0Z"/><path class="cls-5" d="M1320.4,102.7c3.7,0,6.7,3,6.7,6.7s-3,6.7-6.7,6.7-6.7-3-6.7-6.7,3-6.7,6.7-6.7M1320.4,100.7c-4.8,0-8.7,3.9-8.7,8.7s3.9,8.7,8.7,8.7,8.7-3.9,8.7-8.7-3.9-8.7-8.7-8.7h0Z"/><line class="cls-3" x1="1326.8" y1="80.1" x2="1322" y2="101.5"/><line class="cls-3" x1="1322" y1="76.2" x2="1295.1" y2="92.8"/><line class="cls-3" x1="1295.8" y1="100.7" x2="1312.5" y2="107.1"/><line class="cls-3" x1="1288.7" y1="105.5" x2="1291.1" y2="130.9"/><line class="cls-3" x1="1301.4" y1="138.8" x2="1326" y2="138.8"/><line class="cls-3" x1="1331.5" y1="131.7" x2="1324.4" y2="116.6"/><line class="cls-3" x1="1297.4" y1="132.4" x2="1314.9" y2="115"/><line class="cls-3" x1="1328.3" y1="107.1" x2="1348.2" y2="101.5"/><path class="cls-5" d="M1323.5,108c0,2.5-1.2,5.6-3.4,5.6s-2-1.2-2-2.7c0-2.6,1.4-5.4,3.4-5.4s1.9,1.2,1.9,2.4ZM1319.2,111c0,.8.2,1.8,1.1,1.8,1.5,0,2.3-3.2,2.3-4.7s0-1.7-1-1.7c-1.4,0-2.3,2.7-2.3,4.6Z"/><path class="cls-5" d="M1356.8,96.2h0l-1.3.7v-.8c-.1,0,1.7-.9,1.7-.9h.8l-1.5,7.8h-1l1.3-6.8Z"/><path class="cls-5" d="M1326.5,76.3v-.7c.1,0,1.3-1,1.3-1,2.1-1.8,3.3-3,3.3-4.3s-.3-1.2-1.2-1.2-1.2.3-1.6.6l-.3-.7c.5-.4,1.4-.7,2.1-.7,1.5,0,2,1,2,1.9,0,1.7-1.5,3.1-3.4,4.6l-.7.5h0s3.3,0,3.3,0l-.2.9h-4.7Z"/><path class="cls-5" d="M1286,100.2c.3.2.8.4,1.5.4,1.3,0,1.9-.9,1.9-1.7s-.8-1.4-1.7-1.4h-.4l.2-.8h.4c.7,0,1.9-.5,1.9-1.5s-.4-1-1.1-1-1.1.2-1.5.4l-.2-.8c.5-.3,1.2-.5,1.9-.5,1.3,0,2,.8,2,1.7s-.8,1.8-1.7,2h0c.9.2,1.3,1,1.3,1.8,0,1.5-1.3,2.6-3,2.6s-1.5-.3-1.8-.5l.3-.8Z"/><path class="cls-5" d="M1292.6,143.3l.4-2.1h-3.4v-.7c.1,0,4.3-5,4.3-5h1.1l-.9,4.9h1.1l-.2.8h-1.1l-.4,2.1h-.9ZM1293.1,140.4l.5-2.6c0-.4.2-.8.3-1.2h0c-.3.5-.5.9-.9,1.3l-2.2,2.5h0s2.3,0,2.3,0Z"/><path class="cls-5" d="M1337.1,136.4h-2.7l-.6,2c.1,0,.2,0,.4,0,.4,0,.9.1,1.4.4.6.4.9,1,.9,1.7,0,1.9-1.5,3-3.2,3s-1.4-.2-1.7-.4l.3-.8c.3.2.8.4,1.5.4,1.1,0,2.1-.9,2.1-2s-.4-1.5-1.9-1.5-.6,0-.9,0l1.1-3.7h3.5l-.2.9Z"/><path class="cls-8" d="M687.5,43.2l1,1.3c.3.4.2.9-.2,1.1l-1.1.8c.2.5.3,1.1.4,1.7l1.2.2c.4,0,.7.5.7.9l-.2,1.7c0,.4-.5.7-.9.7l-1.3-.2c-.2.5-.5,1-.9,1.4l.8,1c.3.4.2.9-.2,1.1l-1.3,1c-.4.3-.9.2-1.1-.2l-.8-1.1c-.5.2-1.1.3-1.7.4l-.2,1.2c0,.4-.5.7-.9.7l-1.7-.2c-.4,0-.7-.5-.7-.9l.2-1.3c-.5-.2-1-.5-1.4-.9l-1,.8c-.4.3-.9.2-1.1-.2l-1-1.3c-.3-.4-.2-.9.2-1.1l1.1-.8c-.2-.5-.3-1.1-.4-1.7l-1.2-.2c-.4,0-.7-.5-.7-.9l.2-1.7c0-.4.5-.7.9-.7l1.3.2c.2-.5.5-1,.9-1.4l-.8-1c-.3-.4-.2-.9.2-1.1l1.3-1c.4-.3.9-.2,1.1.2l.8,1.1c.5-.2,1.1-.3,1.7-.4l.2-1.2c0-.4.5-.7.9-.7l1.7.2c.4,0,.7.5.7.9l-.2,1.3c.5.2,1,.5,1.4.9l1-.8c.4-.3.9-.2,1.1.2h0ZM669.4,46c0,0-.2,0-.3,0-2.3.2-4.5,1.1-6.4,2.5-2.1,1.6-3.7,4.1-4.4,7.4l-.2,1-1,.2c-1,.2-1.9.4-2.7.7-.8.3-1.4.7-2,1.1-.5.3-.9.7-1.2,1.1-1.1,1.3-1.6,2.9-1.6,4.5,0,1.7.5,3.3,1.5,4.7.4.5.8,1,1.3,1.4h0s-1.1,2.9-1.1,2.9c-.3-.2-.6-.4-.8-.6-.7-.6-1.3-1.2-1.8-1.9-1.4-1.9-2.1-4.2-2.1-6.4,0-2.3.7-4.6,2.2-6.5.5-.6,1.1-1.2,1.8-1.6.8-.6,1.7-1.1,2.7-1.4.7-.3,1.4-.5,2.2-.7.9-3.6,2.8-6.3,5.3-8.2,2.3-1.8,5.1-2.8,7.9-3.1.9,0,1.7,0,2.6,0-.2.1-.4.2-.5.3h0c-.8.6-1.4,1.5-1.5,2.6h0ZM664.6,76h-4.8l-.7,2.3h-4.4l5.2-13.8h4.7l5.2,13.8h-4.5l-.7-2.3h0ZM663.7,73l-1.5-5-1.5,5h3ZM671.1,64.5h7.1c1.5,0,2.7.4,3.5,1.1.8.7,1.2,1.8,1.2,3.1s-.4,2.5-1.3,3.3c-.8.8-2.1,1.2-3.8,1.2h-2.3v5.1h-4.3v-13.8h0ZM675.4,70.4h1.1c.8,0,1.4-.1,1.7-.4.3-.3.5-.7.5-1.1s-.1-.8-.4-1.1-.8-.5-1.6-.5h-1.2v3.1h0ZM684.5,64.5h4.3v13.8h-4.3v-13.8h0ZM692.4,53.4c.4.3.9.7,1.2,1.1.4.5.8,1,1.2,1.6,1.3,2,2,4.7,1.9,7.3,0,2.6-.7,5.1-2.1,7-.3.5-.7.9-1.1,1.3v-5.9c.2-.8.3-1.6.3-2.4,0-2.1-.5-4.1-1.5-5.6-.3-.4-.6-.8-.9-1.2-.3-.3-.5-.5-.8-.8,0-.1,0-.2,0-.4,0-.3,0-.5,0-.8.3-.1.6-.3.9-.5h0c.3-.2.5-.5.8-.8h0ZM681.7,45.5c1.8.2,3.1,1.9,2.8,3.7-.2,1.8-1.9,3.1-3.7,2.8-1.8-.2-3.1-1.9-2.8-3.7s1.9-3.1,3.7-2.8h0Z"/><path class="cls-5" d="M573.9,11.1c3.7,0,6.7,3,6.7,6.7s-3,6.7-6.7,6.7-6.7-3-6.7-6.7,3-6.7,6.7-6.7M573.9,9.1c-4.8,0-8.7,3.9-8.7,8.7s3.9,8.7,8.7,8.7,8.7-3.9,8.7-8.7-3.9-8.7-8.7-8.7h0Z"/><path class="cls-5" d="M533.5,36.5c3.7,0,6.7,3,6.7,6.7s-3,6.7-6.7,6.7-6.7-3-6.7-6.7,3-6.7,6.7-6.7M533.5,34.5c-4.8,0-8.7,3.9-8.7,8.7s3.9,8.7,8.7,8.7,8.7-3.9,8.7-8.7-3.9-8.7-8.7-8.7h0Z"/><path class="cls-6" d="M600.8,52.5c-4.3,0-7.7-3.5-7.7-7.7s3.5-7.7,7.7-7.7,7.7,3.5,7.7,7.7-3.5,7.7-7.7,7.7Z"/><path class="cls-5" d="M600.8,38.1c3.7,0,6.7,3,6.7,6.7s-3,6.7-6.7,6.7-6.7-3-6.7-6.7,3-6.7,6.7-6.7M600.8,36.1c-4.8,0-8.7,3.9-8.7,8.7s3.9,8.7,8.7,8.7,8.7-3.9,8.7-8.7-3.9-8.7-8.7-8.7h0Z"/><path class="cls-5" d="M537.4,77.7c3.7,0,6.7,3,6.7,6.7s-3,6.7-6.7,6.7-6.7-3-6.7-6.7,3-6.7,6.7-6.7M537.4,75.7c-4.8,0-8.7,3.9-8.7,8.7s3.9,8.7,8.7,8.7,8.7-3.9,8.7-8.7-3.9-8.7-8.7-8.7h0Z"/><path class="cls-5" d="M579.4,77.7c3.7,0,6.7,3,6.7,6.7s-3,6.7-6.7,6.7-6.7-3-6.7-6.7,3-6.7,6.7-6.7M579.4,75.7c-4.8,0-8.7,3.9-8.7,8.7s3.9,8.7,8.7,8.7,8.7-3.9,8.7-8.7-3.9-8.7-8.7-8.7h0Z"/><path class="cls-6" d="M565.2,62.8c-4.3,0-7.7-3.5-7.7-7.7s3.5-7.7,7.7-7.7,7.7,3.5,7.7,7.7-3.5,7.7-7.7,7.7Z"/><path class="cls-5" d="M565.2,48.4c3.7,0,6.7,3,6.7,6.7s-3,6.7-6.7,6.7-6.7-3-6.7-6.7,3-6.7,6.7-6.7M565.2,46.4c-4.8,0-8.7,3.9-8.7,8.7s3.9,8.7,8.7,8.7,8.7-3.9,8.7-8.7-3.9-8.7-8.7-8.7h0Z"/><path class="cls-5" d="M568.3,53.6c0,2.5-1.2,5.6-3.4,5.6s-2-1.2-2-2.7c0-2.6,1.4-5.4,3.4-5.4s1.9,1.2,1.9,2.4ZM563.9,56.6c0,.8.2,1.8,1.1,1.8,1.5,0,2.3-3.2,2.3-4.7s0-1.7-1-1.7c-1.4,0-2.3,2.7-2.3,4.6Z"/><path class="cls-5" d="M601.6,41.8h0l-1.3.7v-.8c-.1,0,1.7-.9,1.7-.9h.8l-1.5,7.8h-1l1.3-6.8Z"/><path class="cls-5" d="M571.2,21.9v-.7c.1,0,1.3-1,1.3-1,2.1-1.8,3.3-3,3.3-4.3s-.3-1.2-1.2-1.2-1.2.3-1.6.6l-.3-.7c.5-.4,1.4-.7,2.1-.7,1.5,0,2,1,2,1.9,0,1.7-1.5,3.1-3.4,4.6l-.7.5h0s3.3,0,3.3,0l-.2.9h-4.7Z"/><path class="cls-5" d="M530.8,45.8c.3.2.8.4,1.5.4,1.3,0,1.9-.9,1.9-1.7s-.8-1.4-1.7-1.4h-.4l.2-.8h.4c.7,0,1.9-.5,1.9-1.5s-.4-1-1.1-1-1.1.2-1.5.4l-.2-.8c.5-.3,1.2-.5,1.9-.5,1.3,0,2,.8,2,1.7s-.8,1.8-1.7,2h0c.9.2,1.3,1,1.3,1.8,0,1.5-1.3,2.6-3,2.6s-1.5-.3-1.8-.5l.3-.8Z"/><path class="cls-5" d="M537.3,88.9l.4-2.1h-3.4v-.7c.1,0,4.3-5,4.3-5h1.1l-.9,4.9h1.1l-.2.8h-1.1l-.4,2.1h-.9ZM537.9,86l.5-2.6c0-.4.2-.8.3-1.2h0c-.3.5-.5.9-.9,1.3l-2.2,2.5h0s2.3,0,2.3,0Z"/><path class="cls-5" d="M581.9,82h-2.7l-.6,2c.1,0,.2,0,.4,0,.4,0,.9,0,1.4.4.6.4.9,1,.9,1.7,0,1.9-1.5,3-3.2,3s-1.4-.2-1.7-.4l.3-.8c.3.2.8.4,1.5.4,1.1,0,2.1-.9,2.1-2s-.4-1.5-1.9-1.5-.6,0-.9,0l1.1-3.7h3.5l-.2.9Z"/><path class="cls-5" d="M573.9,117c3.7,0,6.7,3,6.7,6.7s-3,6.7-6.7,6.7-6.7-3-6.7-6.7,3-6.7,6.7-6.7M573.9,115c-4.8,0-8.7,3.9-8.7,8.7s3.9,8.7,8.7,8.7,8.7-3.9,8.7-8.7-3.9-8.7-8.7-8.7h0Z"/><path class="cls-5" d="M533.5,142.4c3.7,0,6.7,3,6.7,6.7s-3,6.7-6.7,6.7-6.7-3-6.7-6.7,3-6.7,6.7-6.7M533.5,140.4c-4.8,0-8.7,3.9-8.7,8.7s3.9,8.7,8.7,8.7,8.7-3.9,8.7-8.7-3.9-8.7-8.7-8.7h0Z"/><path class="cls-5" d="M600.9,143.9c3.7,0,6.7,3,6.7,6.7s-3,6.7-6.7,6.7-6.7-3-6.7-6.7,3-6.7,6.7-6.7M600.9,141.9c-4.8,0-8.7,3.9-8.7,8.7s3.9,8.7,8.7,8.7,8.7-3.9,8.7-8.7-3.9-8.7-8.7-8.7h0Z"/><path class="cls-5" d="M537.5,183.6c3.7,0,6.7,3,6.7,6.7s-3,6.7-6.7,6.7-6.7-3-6.7-6.7,3-6.7,6.7-6.7M537.5,181.6c-4.8,0-8.7,3.9-8.7,8.7s3.9,8.7,8.7,8.7,8.7-3.9,8.7-8.7-3.9-8.7-8.7-8.7h0Z"/><path class="cls-5" d="M579.5,183.6c3.7,0,6.7,3,6.7,6.7s-3,6.7-6.7,6.7-6.7-3-6.7-6.7,3-6.7,6.7-6.7M579.5,181.6c-4.8,0-8.7,3.9-8.7,8.7s3.9,8.7,8.7,8.7,8.7-3.9,8.7-8.7-3.9-8.7-8.7-8.7h0Z"/><path class="cls-6" d="M565.2,168.7c-4.3,0-7.7-3.5-7.7-7.7s3.5-7.7,7.7-7.7,7.7,3.5,7.7,7.7-3.5,7.7-7.7,7.7Z"/><path class="cls-5" d="M565.2,154.2c3.7,0,6.7,3,6.7,6.7s-3,6.7-6.7,6.7-6.7-3-6.7-6.7,3-6.7,6.7-6.7M565.2,152.2c-4.8,0-8.7,3.9-8.7,8.7s3.9,8.7,8.7,8.7,8.7-3.9,8.7-8.7-3.9-8.7-8.7-8.7h0Z"/><path class="cls-5" d="M568.3,159.5c0,2.5-1.2,5.6-3.4,5.6s-2-1.2-2-2.7c0-2.6,1.4-5.4,3.4-5.4s1.9,1.2,1.9,2.4ZM563.9,162.5c0,.8.2,1.8,1.1,1.8,1.5,0,2.3-3.2,2.3-4.7s0-1.7-1-1.7c-1.4,0-2.3,2.7-2.3,4.6Z"/><path class="cls-5" d="M601.6,147.7h0l-1.3.7v-.8c-.1,0,1.7-.9,1.7-.9h.8l-1.5,7.8h-1l1.3-6.8Z"/><path class="cls-5" d="M571.2,127.8v-.7c.1,0,1.3-1,1.3-1,2.1-1.8,3.3-3,3.3-4.3s-.3-1.2-1.2-1.2-1.2.3-1.6.6l-.3-.7c.5-.4,1.4-.7,2.1-.7,1.5,0,2,1,2,1.9,0,1.7-1.5,3.1-3.4,4.6l-.7.5h0s3.3,0,3.3,0l-.2.9h-4.7Z"/><path class="cls-5" d="M530.8,151.7c.3.2.8.4,1.5.4,1.3,0,1.9-.9,1.9-1.7s-.8-1.4-1.7-1.4h-.4l.2-.8h.4c.7,0,1.9-.5,1.9-1.5s-.4-1-1.1-1-1.1.2-1.5.4l-.2-.8c.5-.3,1.2-.5,1.9-.5,1.3,0,2,.8,2,1.7s-.8,1.8-1.7,2h0c.9.2,1.3,1,1.3,1.8,0,1.5-1.3,2.6-3,2.6s-1.5-.3-1.8-.5l.3-.8Z"/><path class="cls-5" d="M537.3,194.8l.4-2.1h-3.4v-.7c.1,0,4.3-5,4.3-5h1.1l-.9,4.9h1.1l-.2.8h-1.1l-.4,2.1h-.9ZM537.9,191.9l.5-2.6c0-.4.2-.8.3-1.2h0c-.3.5-.5.9-.9,1.3l-2.2,2.5h0s2.3,0,2.3,0Z"/><path class="cls-5" d="M581.9,187.9h-2.7l-.6,2c.1,0,.2,0,.4,0,.4,0,.9,0,1.4.4.6.4.9,1,.9,1.7,0,1.9-1.5,3-3.2,3s-1.4-.2-1.7-.4l.3-.8c.3.2.8.4,1.5.4,1.1,0,2.1-.9,2.1-2s-.4-1.5-1.9-1.5-.6,0-.9,0l1.1-3.7h3.5l-.2.9Z"/><path class="cls-5" d="M928.6,156c3.7,0,6.7,3,6.7,6.7s-3,6.7-6.7,6.7-6.7-3-6.7-6.7,3-6.7,6.7-6.7M928.6,154c-4.8,0-8.7,3.9-8.7,8.7s3.9,8.7,8.7,8.7,8.7-3.9,8.7-8.7-3.9-8.7-8.7-8.7h0Z"/><path class="cls-5" d="M868,170.3c3.7,0,6.7,3,6.7,6.7s-3,6.7-6.7,6.7-6.7-3-6.7-6.7,3-6.7,6.7-6.7M868,168.3c-4.8,0-8.7,3.9-8.7,8.7s3.9,8.7,8.7,8.7,8.7-3.9,8.7-8.7-3.9-8.7-8.7-8.7h0Z"/><path class="cls-5" d="M871.1,175.6c0,2.5-1.2,5.6-3.4,5.6s-2-1.2-2-2.7c0-2.6,1.4-5.4,3.4-5.4s1.9,1.2,1.9,2.4ZM866.7,178.5c0,.8.2,1.8,1.1,1.8,1.5,0,2.3-3.2,2.3-4.7s0-1.7-1-1.7c-1.4,0-2.3,2.7-2.3,4.6Z"/><path class="cls-5" d="M929.4,159.8h0l-1.3.7v-.8c-.1,0,1.7-.9,1.7-.9h.8l-1.5,7.8h-1l1.3-6.8Z"/><line class="cls-3" x1="920.2" y1="164.5" x2="878.4" y2="174.9"/><polygon class="cls-5" points="881.4 170.6 879 174.8 883.1 177.2 880.3 177.9 876.2 175.5 878.6 171.3 881.4 170.6"/><path class="cls-6" d="M313.9,75.4c-4.3,0-7.7-3.5-7.7-7.7s3.5-7.7,7.7-7.7,7.7,3.5,7.7,7.7-3.5,7.7-7.7,7.7Z"/><path class="cls-5" d="M313.9,61c3.7,0,6.7,3,6.7,6.7s-3,6.7-6.7,6.7-6.7-3-6.7-6.7,3-6.7,6.7-6.7M313.9,59c-4.8,0-8.7,3.9-8.7,8.7s3.9,8.7,8.7,8.7,8.7-3.9,8.7-8.7-3.9-8.7-8.7-8.7h0Z"/><path class="cls-6" d="M273.5,100.8c-4.3,0-7.7-3.5-7.7-7.7s3.5-7.7,7.7-7.7,7.7,3.5,7.7,7.7-3.5,7.7-7.7,7.7Z"/><path class="cls-5" d="M273.5,86.4c3.7,0,6.7,3,6.7,6.7s-3,6.7-6.7,6.7-6.7-3-6.7-6.7,3-6.7,6.7-6.7M273.5,84.4c-4.8,0-8.7,3.9-8.7,8.7s3.9,8.7,8.7,8.7,8.7-3.9,8.7-8.7-3.9-8.7-8.7-8.7h0Z"/><path class="cls-6" d="M340.9,102.4c-4.3,0-7.7-3.5-7.7-7.7s3.5-7.7,7.7-7.7,7.7,3.5,7.7,7.7-3.5,7.7-7.7,7.7Z"/><path class="cls-5" d="M340.9,87.9c3.7,0,6.7,3,6.7,6.7s-3,6.7-6.7,6.7-6.7-3-6.7-6.7,3-6.7,6.7-6.7M340.9,85.9c-4.8,0-8.7,3.9-8.7,8.7s3.9,8.7,8.7,8.7,8.7-3.9,8.7-8.7-3.9-8.7-8.7-8.7h0Z"/><path class="cls-6" d="M277.5,142c-4.3,0-7.7-3.5-7.7-7.7s3.5-7.7,7.7-7.7,7.7,3.5,7.7,7.7-3.5,7.7-7.7,7.7Z"/><path class="cls-5" d="M277.5,127.6c3.7,0,6.7,3,6.7,6.7s-3,6.7-6.7,6.7-6.7-3-6.7-6.7,3-6.7,6.7-6.7M277.5,125.6c-4.8,0-8.7,3.9-8.7,8.7s3.9,8.7,8.7,8.7,8.7-3.9,8.7-8.7-3.9-8.7-8.7-8.7h0Z"/><path class="cls-6" d="M319.5,142c-4.3,0-7.7-3.5-7.7-7.7s3.5-7.7,7.7-7.7,7.7,3.5,7.7,7.7-3.5,7.7-7.7,7.7Z"/><path class="cls-5" d="M319.5,127.6c3.7,0,6.7,3,6.7,6.7s-3,6.7-6.7,6.7-6.7-3-6.7-6.7,3-6.7,6.7-6.7M319.5,125.6c-4.8,0-8.7,3.9-8.7,8.7s3.9,8.7,8.7,8.7,8.7-3.9,8.7-8.7-3.9-8.7-8.7-8.7h0Z"/><path class="cls-6" d="M305.2,112.7c-4.3,0-7.7-3.5-7.7-7.7s3.5-7.7,7.7-7.7,7.7,3.5,7.7,7.7-3.5,7.7-7.7,7.7Z"/><path class="cls-5" d="M305.2,98.2c3.7,0,6.7,3,6.7,6.7s-3,6.7-6.7,6.7-6.7-3-6.7-6.7,3-6.7,6.7-6.7M305.2,96.2c-4.8,0-8.7,3.9-8.7,8.7s3.9,8.7,8.7,8.7,8.7-3.9,8.7-8.7-3.9-8.7-8.7-8.7h0Z"/><path class="cls-5" d="M308.3,103.5c0,2.5-1.2,5.6-3.4,5.6s-2-1.2-2-2.7c0-2.6,1.4-5.4,3.4-5.4s1.9,1.2,1.9,2.4ZM303.9,106.5c0,.8.2,1.8,1.1,1.8,1.5,0,2.3-3.2,2.3-4.7s0-1.7-1-1.7c-1.4,0-2.3,2.7-2.3,4.6Z"/><path class="cls-5" d="M341.6,91.7h0l-1.3.7v-.8c-.1,0,1.7-.9,1.7-.9h.8l-1.5,7.8h-1l1.3-6.8Z"/><path class="cls-5" d="M311.2,71.8v-.7c.1,0,1.3-1,1.3-1,2.1-1.8,3.3-3,3.3-4.3s-.3-1.2-1.2-1.2-1.2.3-1.6.6l-.3-.7c.5-.4,1.4-.7,2.1-.7,1.5,0,2,1,2,1.9,0,1.7-1.5,3.1-3.4,4.6l-.7.5h0s3.3,0,3.3,0l-.2.9h-4.7Z"/><path class="cls-5" d="M270.8,95.7c.3.2.8.4,1.5.4,1.3,0,1.9-.9,1.9-1.7s-.8-1.4-1.7-1.4h-.4l.2-.8h.4c.7,0,1.9-.5,1.9-1.5s-.4-1-1.1-1-1.1.2-1.5.4l-.2-.8c.5-.3,1.2-.5,1.9-.5,1.3,0,2,.8,2,1.7s-.8,1.8-1.7,2h0c.9.2,1.3,1,1.3,1.8,0,1.5-1.3,2.6-3,2.6s-1.5-.3-1.8-.5l.3-.8Z"/><path class="cls-5" d="M277.3,138.8l.4-2.1h-3.4v-.7c.1,0,4.3-5,4.3-5h1.1l-.9,4.9h1.1l-.2.8h-1.1l-.4,2.1h-.9ZM277.9,135.9l.5-2.6c0-.4.2-.8.3-1.2h0c-.3.5-.5.9-.9,1.3l-2.2,2.5h0s2.3,0,2.3,0Z"/><path class="cls-5" d="M321.9,131.9h-2.7l-.6,2c.1,0,.2,0,.4,0,.4,0,.9,0,1.4.4.6.4.9,1,.9,1.7,0,1.9-1.5,3-3.2,3s-1.4-.2-1.7-.4l.3-.8c.3.2.8.4,1.5.4,1.1,0,2.1-.9,2.1-2s-.4-1.5-1.9-1.5-.6,0-.9,0l1.1-3.7h3.5l-.2.9Z"/><path class="cls-5" d="M772.8,45v12h-25v-12h25M774.8,43h-29v16h29v-16h0Z"/><path class="cls-5" d="M759.2,48.7c0,2.5-1.2,5.6-3.4,5.6s-2-1.2-2-2.7c0-2.6,1.4-5.4,3.4-5.4s1.9,1.2,1.9,2.4ZM754.8,51.7c0,.8.2,1.8,1.1,1.8,1.5,0,2.3-3.2,2.3-4.7s0-1.7-1-1.7c-1.4,0-2.3,2.7-2.3,4.6Z"/><path class="cls-5" d="M759.5,53.6c0-.4.3-.8.8-.8s.7.3.7.7-.3.8-.8.8-.7-.3-.7-.7Z"/><path class="cls-5" d="M761.7,54.2v-.7c.1,0,1.3-1,1.3-1,2.1-1.8,3.3-3,3.3-4.3s-.3-1.2-1.2-1.2-1.2.3-1.6.6l-.3-.7c.5-.4,1.4-.7,2.1-.7,1.5,0,2,1,2,1.9,0,1.7-1.5,3.1-3.4,4.6l-.7.5h0s3.3,0,3.3,0l-.2.9h-4.7Z"/><path class="cls-5" d="M772.8,59v12h-25v-12h25M774.8,57h-29v16h29v-16h0Z"/><path class="cls-5" d="M759.2,62.7c0,2.5-1.2,5.6-3.4,5.6s-2-1.2-2-2.7c0-2.6,1.4-5.4,3.4-5.4s1.9,1.2,1.9,2.4ZM754.8,65.7c0,.8.2,1.8,1.1,1.8,1.5,0,2.3-3.2,2.3-4.7s0-1.7-1-1.7c-1.4,0-2.3,2.7-2.3,4.6Z"/><path class="cls-5" d="M759.5,67.6c0-.4.3-.8.8-.8s.7.3.7.7-.3.8-.8.8-.7-.3-.7-.7Z"/><path class="cls-5" d="M768,60.4v.7c-1.6,2.4-3.1,4.7-4.7,7.1h-1.1c1.5-2.3,3-4.6,4.5-6.9h0s-3.6,0-3.6,0l.2-.9h4.7Z"/><path class="cls-5" d="M772.8,73v12h-25v-12h25M774.8,71h-29v16h29v-16h0Z"/><path class="cls-5" d="M759.2,76.7c0,2.5-1.2,5.6-3.4,5.6s-2-1.2-2-2.7c0-2.6,1.4-5.4,3.4-5.4s1.9,1.2,1.9,2.4ZM754.8,79.7c0,.8.2,1.8,1.1,1.8,1.5,0,2.3-3.2,2.3-4.7s0-1.7-1-1.7c-1.4,0-2.3,2.7-2.3,4.6Z"/><path class="cls-5" d="M759.5,81.6c0-.4.3-.8.8-.8s.7.3.7.7-.3.8-.8.8-.7-.3-.7-.7Z"/><path class="cls-5" d="M765.2,75.4h0l-1.3.7v-.8c-.1,0,1.7-.9,1.7-.9h.8l-1.5,7.8h-1l1.3-6.8Z"/><path class="cls-5" d="M726.6,30.3c.5,0,1.2-.2,2-.2s1.8.2,2.3.7c.4.4.7,1,.7,1.7s-.2,1.3-.6,1.7c-.6.6-1.5.9-2.5.9s-.6,0-.8,0v3.2h-1v-8ZM727.7,34.2c.2,0,.5,0,.9,0,1.3,0,2-.6,2-1.7s-.8-1.6-1.9-1.6-.8,0-1,0v3.1Z"/><path class="cls-5" d="M732.8,34.3c0-.7,0-1.3,0-1.8h.9v1.1h0c.3-.8.9-1.3,1.6-1.3s.2,0,.3,0v1c-.1,0-.2,0-.4,0-.7,0-1.3.6-1.4,1.3,0,.1,0,.3,0,.5v3.1h-1v-4Z"/><path class="cls-5" d="M737.2,35.6c0,1.4.9,2,2,2s1.2-.1,1.6-.3l.2.7c-.4.2-1,.4-1.9.4-1.8,0-2.9-1.2-2.9-2.9s1-3.1,2.7-3.1,2.4,1.7,2.4,2.7,0,.4,0,.5h-4.1ZM740.3,34.9c0-.7-.3-1.7-1.5-1.7s-1.5,1-1.6,1.7h3.1Z"/><path class="cls-5" d="M747.6,29.8v7c0,.5,0,1.1,0,1.5h-.9v-1h0c-.3.6-1,1.1-2,1.1-1.4,0-2.5-1.2-2.5-2.9,0-1.9,1.2-3.1,2.6-3.1s1.5.4,1.7.9h0v-3.5h1ZM746.5,34.9c0-.1,0-.3,0-.5-.2-.7-.7-1.2-1.5-1.2s-1.7,1-1.7,2.2.6,2.2,1.7,2.2,1.3-.5,1.5-1.3c0-.1,0-.3,0-.5v-1Z"/><path class="cls-5" d="M750.5,30.9c0,.4-.3.7-.7.7s-.6-.3-.6-.7c0-.4.3-.7.7-.7s.6.3.7.7ZM749.4,38.3v-5.8h1v5.8h-1Z"/><path class="cls-5" d="M756.3,38.1c-.3.1-.9.3-1.7.3-1.7,0-2.9-1.2-2.9-3s1.2-3.1,3.1-3.1,1.2.2,1.5.3l-.2.8c-.3-.1-.7-.3-1.2-.3-1.3,0-2,1-2,2.2,0,1.3.9,2.2,2,2.2s1-.1,1.3-.3l.2.8Z"/><path class="cls-5" d="M759,30.9v1.7h1.5v.8h-1.5v3.1c0,.7.2,1.1.8,1.1s.5,0,.6,0v.8c-.2,0-.5.1-.9.1s-.9-.2-1.1-.4c-.3-.3-.4-.8-.4-1.5v-3.2h-.9v-.8h.9v-1.4l1-.3Z"/><path class="cls-5" d="M762.8,30.9c0,.4-.3.7-.7.7s-.6-.3-.6-.7c0-.4.3-.7.7-.7s.6.3.7.7ZM761.7,38.3v-5.8h1v5.8h-1Z"/><path class="cls-5" d="M769.7,35.4c0,2.1-1.5,3.1-2.9,3.1s-2.8-1.1-2.8-3,1.3-3.1,2.9-3.1,2.8,1.2,2.8,3ZM765.1,35.4c0,1.3.7,2.2,1.8,2.2s1.8-.9,1.8-2.3-.5-2.2-1.7-2.2-1.8,1.2-1.8,2.3Z"/><path class="cls-5" d="M771.1,34.1c0-.6,0-1.1,0-1.6h.9v1h0c.3-.5,1-1.1,1.9-1.1s2,.5,2,2.5v3.5h-1v-3.3c0-.9-.4-1.7-1.3-1.7s-1.2.5-1.4,1.1c0,.1,0,.3,0,.5v3.5h-1v-4.2Z"/><path class="cls-5" d="M785.5,35.4c0,2.1-1.5,3.1-2.9,3.1s-2.8-1.1-2.8-3,1.3-3.1,2.9-3.1,2.8,1.2,2.8,3ZM780.9,35.4c0,1.3.7,2.2,1.8,2.2s1.8-.9,1.8-2.3-.5-2.2-1.7-2.2-1.8,1.2-1.8,2.3Z"/><path class="cls-5" d="M787,38.3v-5h-.8v-.8h.8v-.3c0-.8.2-1.6.7-2,.4-.4.9-.5,1.4-.5s.7,0,.9.2v.8c-.3,0-.5-.1-.8-.1-.9,0-1.1.8-1.1,1.7v.3h1.4v.8h-1.4v5h-1Z"/><path class="cls-5" d="M793.7,32.5l.5,3.3c0,.7.2,1.1.2,1.4h0c.1-.3.3-.7.6-1.4l1.8-3.4h1.1l-3.2,5.8h-1l-1-5.8h1Z"/><path class="cls-5" d="M797.3,38.5c0-1.6.9-3.1,2.2-3.1s1.3.7,1.3,1.5c0,1.7-.9,3.3-2.2,3.3s-1.3-.7-1.3-1.7ZM800,37c0-.4,0-1-.6-1-.8,0-1.3,1.5-1.3,2.5s.1,1,.6,1c.8,0,1.3-1.7,1.3-2.6Z"/><rect class="cls-1" x="289.7" y="82" width="67" height="37"/><rect class="cls-2" x="846.1" y="22" width="103" height="66.3" rx="12.7" ry="12.7"/><path class="cls-7" d="M868.2,43.1h-4.3v-1.1h1.4v-8.7h-1.4v-1.1h4.3v1.1h-1.4v8.7h1.4v1.1Z"/><path class="cls-7" d="M877.4,43.1h-1.4v-4.7c0-.4,0-.7,0-1.1,0-.3-.1-.6-.2-.8-.1-.2-.3-.4-.5-.5-.2,0-.5-.2-.9-.2s-.8,0-1.2.3-.8.4-1.2.7v6.1h-1.4v-8.2h1.4v.9c.4-.4.9-.6,1.3-.8s.9-.3,1.4-.3c.9,0,1.6.3,2,.8s.7,1.3.7,2.3v5.3Z"/><path class="cls-7" d="M884.5,33h0c-.2,0-.3,0-.6-.1-.2,0-.5,0-.6,0-.6,0-1,.1-1.3.4-.3.3-.4.7-.4,1.4v.3h2.5v1.2h-2.4v7h-1.4v-7h-.9v-1.2h.9v-.3c0-1,.2-1.7.7-2.2.5-.5,1.2-.8,2.1-.8s.6,0,.8,0c.2,0,.5,0,.7.1v1.3Z"/><path class="cls-7" d="M886.7,43.1h-1.4v-11.4h1.4v11.4Z"/><path class="cls-7" d="M896.2,43.1h-1.4v-.9c-.5.4-.9.6-1.3.8s-.9.3-1.4.3c-.9,0-1.5-.3-2-.8-.5-.5-.7-1.3-.7-2.3v-5.3h1.4v4.7c0,.4,0,.8,0,1.1,0,.3.1.5.2.8.1.2.3.4.5.5s.5.1.9.1.7,0,1.2-.3c.4-.2.8-.4,1.2-.7v-6.1h1.4v8.2Z"/><path class="cls-7" d="M905.8,39.2h-6c0,.5,0,.9.2,1.3.2.4.4.7.6.9.3.2.6.4.9.5.3.1.7.2,1.2.2s1.1-.1,1.7-.3c.6-.2,1-.4,1.2-.7h0v1.5c-.5.2-.9.4-1.4.5s-1,.2-1.5.2c-1.4,0-2.4-.4-3.2-1.1-.8-.7-1.1-1.8-1.1-3.1s.4-2.4,1.1-3.2c.7-.8,1.7-1.2,2.9-1.2s2,.3,2.6,1c.6.6.9,1.6.9,2.7v.7ZM904.5,38.1c0-.7-.2-1.3-.5-1.7-.4-.4-.9-.6-1.6-.6s-1.3.2-1.8.7c-.4.4-.7,1-.7,1.6h4.7Z"/><path class="cls-7" d="M914.7,43.1h-1.4v-4.7c0-.4,0-.7,0-1.1,0-.3-.1-.6-.2-.8-.1-.2-.3-.4-.5-.5-.2,0-.5-.2-.9-.2s-.8,0-1.2.3-.8.4-1.2.7v6.1h-1.4v-8.2h1.4v.9c.4-.4.9-.6,1.3-.8s.9-.3,1.4-.3c.9,0,1.6.3,2,.8s.7,1.3.7,2.3v5.3Z"/><path class="cls-7" d="M923.4,42.6c-.5.2-.9.4-1.3.5-.4.1-.9.2-1.3.2s-1.1,0-1.6-.3-.9-.4-1.3-.8c-.4-.4-.6-.8-.8-1.3s-.3-1.2-.3-1.9c0-1.3.4-2.4,1.1-3.1.7-.8,1.7-1.1,2.9-1.1s.9,0,1.4.2c.5.1.9.3,1.2.5v1.5h0c-.4-.3-.9-.6-1.3-.8-.4-.2-.9-.3-1.3-.3-.8,0-1.4.3-1.8.8-.5.5-.7,1.3-.7,2.3s.2,1.7.7,2.3c.4.5,1.1.8,1.9.8s.6,0,.8-.1.5-.2.8-.3c.2-.1.4-.2.6-.3.2-.1.3-.2.4-.3h0v1.5Z"/><path class="cls-7" d="M932,39.2h-6c0,.5,0,.9.2,1.3.2.4.4.7.6.9.3.2.6.4.9.5.3.1.7.2,1.2.2s1.1-.1,1.7-.3c.6-.2,1-.4,1.2-.7h0v1.5c-.5.2-.9.4-1.4.5s-1,.2-1.5.2c-1.4,0-2.4-.4-3.2-1.1-.8-.7-1.1-1.8-1.1-3.1s.4-2.4,1.1-3.2c.7-.8,1.7-1.2,2.9-1.2s2,.3,2.6,1c.6.6.9,1.6.9,2.7v.7ZM930.7,38.1c0-.7-.2-1.3-.5-1.7-.4-.4-.9-.6-1.6-.6s-1.3.2-1.8.7c-.4.4-.7,1-.7,1.6h4.7Z"/><path class="cls-7" d="M887.4,50.2l-4,10.9h-1.9l-4-10.9h1.6l3.4,9.6,3.4-9.6h1.5Z"/><path class="cls-7" d="M894.5,61.1h-1.4v-.9c-.1,0-.3.2-.5.3-.2.1-.4.3-.6.4-.2.1-.5.2-.8.3-.3,0-.6.1-1,.1-.7,0-1.4-.2-1.9-.7-.5-.5-.8-1.1-.8-1.9s.1-1.1.4-1.5c.3-.4.6-.7,1.1-.9.5-.2,1.1-.4,1.8-.4s1.4-.1,2.2-.2v-.2c0-.3,0-.6-.2-.8-.1-.2-.3-.4-.5-.5-.2-.1-.4-.2-.7-.2s-.6,0-.9,0-.8,0-1.2.1c-.4,0-.9.2-1.4.4h0v-1.4c.3,0,.7-.2,1.2-.2s1-.1,1.5-.1,1.1,0,1.5.1c.4,0,.8.3,1.1.5.3.2.5.5.7.9s.2.8.2,1.3v5.6ZM893.2,59.1v-2.3c-.4,0-.9,0-1.5.1-.6,0-1,.1-1.4.2-.4.1-.7.3-1,.5-.2.2-.4.6-.4,1s.1.8.4,1.1c.3.2.7.4,1.3.4s.9,0,1.3-.3c.4-.2.8-.4,1.1-.7Z"/><path class="cls-7" d="M898.6,61.1h-1.4v-11.4h1.4v11.4Z"/><path class="cls-7" d="M908.1,61.1h-1.4v-.9c-.5.4-.9.6-1.3.8-.4.2-.9.3-1.4.3-.9,0-1.5-.3-2-.8-.5-.5-.7-1.3-.7-2.3v-5.3h1.4v4.7c0,.4,0,.8,0,1.1,0,.3.1.5.2.8.1.2.3.4.5.5s.5.1.9.1.7,0,1.2-.3c.4-.2.8-.4,1.2-.7v-6.1h1.4v8.2Z"/><path class="cls-7" d="M917.7,57.2h-6c0,.5,0,.9.2,1.3.2.4.4.7.6.9.3.2.6.4.9.5.3.1.7.2,1.2.2s1.1-.1,1.7-.3c.6-.2,1-.4,1.2-.7h0v1.5c-.5.2-.9.4-1.4.5-.5.1-1,.2-1.5.2-1.4,0-2.4-.4-3.2-1.1-.8-.7-1.1-1.8-1.1-3.1s.4-2.4,1.1-3.2c.7-.8,1.7-1.2,2.9-1.2s2,.3,2.6,1c.6.6.9,1.6.9,2.7v.7ZM916.3,56.1c0-.7-.2-1.3-.5-1.7-.4-.4-.9-.6-1.6-.6s-1.3.2-1.8.7c-.4.4-.7,1-.7,1.6h4.7Z"/><path class="cls-7" d="M866.7,79.1h-7.2v-10.9h7.2v1.3h-5.7v3h5.7v1.3h-5.7v4.1h5.7v1.3Z"/><path class="cls-7" d="M874.8,76.8c0,.7-.3,1.4-.9,1.8-.6.5-1.5.7-2.5.7s-1.2,0-1.7-.2c-.5-.1-.9-.3-1.3-.5v-1.5h0c.4.3.9.6,1.5.8.5.2,1,.3,1.5.3s1.1,0,1.4-.3.5-.5.5-.9,0-.6-.3-.7-.5-.3-1.1-.4c-.2,0-.5,0-.8-.2-.3,0-.6-.1-.9-.2-.7-.2-1.2-.5-1.5-.8-.3-.4-.5-.8-.5-1.4s0-.7.2-1c.1-.3.4-.6.6-.8.3-.2.6-.4,1-.5.4-.1.9-.2,1.4-.2s1,0,1.5.2c.5.1.9.3,1.2.4v1.5h0c-.4-.3-.8-.5-1.3-.7-.5-.2-1-.3-1.5-.3s-.9,0-1.3.3c-.3.2-.5.5-.5.9s.1.6.3.8c.2.2.5.3,1,.4.3,0,.5.1.9.2.3,0,.6.1.8.2.6.1,1.1.4,1.5.8.3.4.5.8.5,1.4Z"/><path class="cls-7" d="M881,79c-.3,0-.5.1-.8.2-.3,0-.6,0-.8,0-.8,0-1.5-.2-1.9-.7s-.7-1.2-.7-2.2v-4.3h-.9v-1.2h.9v-2.4h1.4v2.4h2.8v1.2h-2.8v3.7c0,.4,0,.8,0,1,0,.2,0,.5.2.7.1.2.3.3.4.4.2,0,.5.1.9.1s.5,0,.7,0c.2,0,.4-.1.5-.2h0v1.2Z"/><path class="cls-7" d="M884.1,69.6h-1.6v-1.4h1.6v1.4ZM884,79.1h-1.4v-8.2h1.4v8.2Z"/><path class="cls-7" d="M898.7,79.1h-1.4v-4.7c0-.4,0-.7,0-1,0-.3,0-.6-.2-.8-.1-.2-.3-.4-.5-.5s-.5-.2-.9-.2-.8,0-1.2.3c-.4.2-.8.4-1.2.7,0,.1,0,.2,0,.4,0,.1,0,.3,0,.4v5.2h-1.4v-4.7c0-.4,0-.7,0-1,0-.3,0-.6-.2-.8-.1-.2-.3-.4-.5-.5-.2-.1-.5-.2-.9-.2s-.8,0-1.1.3c-.4.2-.8.4-1.1.7v6.1h-1.4v-8.2h1.4v.9c.4-.4.9-.6,1.3-.8.4-.2.9-.3,1.4-.3s1,.1,1.4.4c.4.2.7.6.9,1,.6-.5,1.1-.8,1.5-1,.5-.2.9-.3,1.5-.3.9,0,1.6.3,2,.8.4.5.6,1.3.6,2.3v5.3Z"/><path class="cls-7" d="M907.7,79.1h-1.4v-.9c-.1,0-.3.2-.5.3-.2.1-.4.3-.6.4-.2.1-.5.2-.8.3-.3,0-.6.1-1,.1-.7,0-1.4-.2-1.9-.7-.5-.5-.8-1.1-.8-1.9s.1-1.1.4-1.5c.3-.4.6-.7,1.1-.9.5-.2,1.1-.4,1.8-.4s1.4-.1,2.2-.2v-.2c0-.3,0-.6-.2-.8-.1-.2-.3-.4-.5-.5-.2-.1-.4-.2-.7-.2s-.6,0-.9,0-.8,0-1.2.1c-.4,0-.9.2-1.4.4h0v-1.4c.3,0,.7-.2,1.2-.2s1-.1,1.5-.1,1.1,0,1.5.1c.4,0,.8.3,1.1.5.3.2.5.5.7.9s.2.8.2,1.3v5.6ZM906.3,77.1v-2.3c-.4,0-.9,0-1.5.1-.6,0-1,.1-1.4.2-.4.1-.7.3-1,.5-.2.2-.4.6-.4,1s.1.8.4,1.1c.3.2.7.4,1.3.4s.9,0,1.3-.3c.4-.2.8-.4,1.1-.7Z"/><path class="cls-7" d="M914.6,79c-.3,0-.5.1-.8.2-.3,0-.6,0-.8,0-.8,0-1.5-.2-1.9-.7s-.7-1.2-.7-2.2v-4.3h-.9v-1.2h.9v-2.4h1.4v2.4h2.8v1.2h-2.8v3.7c0,.4,0,.8,0,1,0,.2,0,.5.2.7.1.2.3.3.4.4.2,0,.5.1.9.1s.5,0,.7,0c.2,0,.4-.1.5-.2h0v1.2Z"/><path class="cls-7" d="M917.7,69.6h-1.6v-1.4h1.6v1.4ZM917.7,79.1h-1.4v-8.2h1.4v8.2Z"/><path class="cls-7" d="M927.4,75c0,1.3-.3,2.4-1,3.2s-1.6,1.2-2.7,1.2-2.1-.4-2.8-1.2c-.7-.8-1-1.8-1-3.2s.3-2.4,1-3.2c.7-.8,1.6-1.2,2.8-1.2s2.1.4,2.7,1.2c.7.8,1,1.8,1,3.2ZM925.9,75c0-1.1-.2-1.8-.6-2.4-.4-.5-1-.8-1.7-.8s-1.3.3-1.7.8c-.4.5-.6,1.3-.6,2.4s.2,1.8.6,2.3c.4.5,1,.8,1.7.8s1.3-.3,1.7-.8c.4-.5.6-1.3.6-2.3Z"/><path class="cls-7" d="M936.3,79.1h-1.4v-4.7c0-.4,0-.7,0-1.1,0-.3-.1-.6-.2-.8-.1-.2-.3-.4-.5-.5-.2,0-.5-.2-.9-.2s-.8,0-1.2.3-.8.4-1.2.7v6.1h-1.4v-8.2h1.4v.9c.4-.4.9-.6,1.3-.8s.9-.3,1.4-.3c.9,0,1.6.3,2,.8s.7,1.3.7,2.3v5.3Z"/><path class="cls-8" d="M687.3,152.6l1,1.3c.3.4.2.9-.2,1.1l-1.1.8c.2.5.3,1.1.4,1.7l1.2.2c.4,0,.7.5.7.9l-.2,1.7c0,.4-.5.7-.9.7l-1.3-.2c-.2.5-.5,1-.9,1.4l.8,1c.3.4.2.9-.2,1.1l-1.3,1c-.4.3-.9.2-1.1-.2l-.8-1.1c-.5.2-1.1.3-1.7.4l-.2,1.2c0,.4-.5.7-.9.7l-1.7-.2c-.4,0-.7-.5-.7-.9l.2-1.3c-.5-.2-1-.5-1.4-.9l-1,.8c-.4.3-.9.2-1.1-.2l-1-1.3c-.3-.4-.2-.9.2-1.1l1.1-.8c-.2-.5-.3-1.1-.4-1.7l-1.2-.2c-.4,0-.7-.5-.7-.9l.2-1.7c0-.4.5-.7.9-.7l1.3.2c.2-.5.5-1,.9-1.4l-.8-1c-.3-.4-.2-.9.2-1.1l1.3-1c.4-.3.9-.2,1.1.2l.8,1.1c.5-.2,1.1-.3,1.7-.4l.2-1.2c0-.4.5-.7.9-.7l1.7.2c.4,0,.7.5.7.9l-.2,1.3c.5.2,1,.5,1.4.9l1-.8c.4-.3.9-.2,1.1.2h0ZM669.2,155.4c0,0-.2,0-.3,0-2.3.2-4.5,1.1-6.4,2.5-2.1,1.6-3.7,4.1-4.4,7.4l-.2,1-1,.2c-1,.2-1.9.4-2.7.7-.8.3-1.4.7-2,1.1-.5.3-.9.7-1.2,1.1-1.1,1.3-1.6,2.9-1.6,4.5,0,1.7.5,3.3,1.5,4.7.4.5.8,1,1.3,1.4h0s-1.1,2.9-1.1,2.9c-.3-.2-.6-.4-.8-.6-.7-.6-1.3-1.2-1.8-1.9-1.4-1.9-2.1-4.2-2.1-6.4,0-2.3.7-4.6,2.2-6.5.5-.6,1.1-1.2,1.8-1.6.8-.6,1.7-1.1,2.7-1.4.7-.3,1.4-.5,2.2-.7.9-3.6,2.8-6.3,5.3-8.2,2.3-1.8,5.1-2.8,7.9-3.1.9,0,1.7,0,2.6,0-.2.1-.4.2-.5.3h0c-.8.6-1.4,1.5-1.5,2.6h0ZM664.4,185.3h-4.8l-.7,2.3h-4.4l5.2-13.8h4.7l5.2,13.8h-4.5l-.7-2.3h0ZM663.5,182.4l-1.5-5-1.5,5h3ZM670.9,173.8h7.1c1.5,0,2.7.4,3.5,1.1.8.7,1.2,1.8,1.2,3.1s-.4,2.5-1.3,3.3c-.8.8-2.1,1.2-3.8,1.2h-2.3v5.1h-4.3v-13.8h0ZM675.2,179.7h1.1c.8,0,1.4-.1,1.7-.4.3-.3.5-.7.5-1.1s-.1-.8-.4-1.1-.8-.5-1.6-.5h-1.2v3.1h0ZM684.3,173.8h4.3v13.8h-4.3v-13.8h0ZM692.1,162.7c.4.3.9.7,1.2,1.1.4.5.8,1,1.2,1.6,1.3,2,2,4.7,1.9,7.3,0,2.6-.7,5.1-2.1,7-.3.5-.7.9-1.1,1.3v-5.9c.2-.8.3-1.6.3-2.4,0-2.1-.5-4.1-1.5-5.6-.3-.4-.6-.8-.9-1.2-.3-.3-.5-.5-.8-.8,0-.1,0-.2,0-.4,0-.3,0-.5,0-.8.3-.1.6-.3.9-.5h0c.3-.2.5-.5.8-.8h0ZM681.5,154.8c1.8.2,3.1,1.9,2.8,3.7-.2,1.8-1.9,3.1-3.7,2.8-1.8-.2-3.1-1.9-2.8-3.7s1.9-3.1,3.7-2.8h0Z"/><rect class="cls-1" x="379.7" y="1" width="583.1" height="208" rx="16.6" ry="16.6"/><rect class="cls-2" x="393.7" y="88" width="103" height="43.7" rx="12.7" ry="12.7"/><path class="cls-7" d="M425.4,96.7h-5.5v3.1h4.7v1.3h-4.7v5.3h-1.5v-10.9h7v1.3Z"/><path class="cls-7" d="M433.4,102.4h-6c0,.5,0,.9.2,1.3.2.4.4.7.6.9.3.2.6.4.9.5.3.1.7.2,1.2.2s1.1-.1,1.7-.3c.6-.2,1-.4,1.2-.7h0v1.5c-.5.2-.9.4-1.4.5-.5.1-1,.2-1.5.2-1.4,0-2.4-.4-3.2-1.1-.8-.7-1.1-1.8-1.1-3.1s.4-2.4,1.1-3.2,1.7-1.2,2.9-1.2,2,.3,2.6,1,.9,1.6.9,2.7v.7ZM432.1,101.3c0-.7-.2-1.3-.5-1.7-.4-.4-.9-.6-1.6-.6s-1.3.2-1.8.7c-.4.4-.7,1-.7,1.6h4.7Z"/><path class="cls-7" d="M441.9,106.3h-1.4v-.9c-.1,0-.3.2-.5.3-.2.1-.4.3-.6.4-.2.1-.5.2-.8.3-.3,0-.6.1-1,.1-.7,0-1.4-.2-1.9-.7-.5-.5-.8-1.1-.8-1.9s.1-1.1.4-1.5c.3-.4.6-.7,1.1-.9.5-.2,1.1-.4,1.8-.4s1.4-.1,2.2-.2v-.2c0-.3,0-.6-.2-.8-.1-.2-.3-.4-.5-.5-.2-.1-.4-.2-.7-.2s-.6,0-.9,0-.8,0-1.2.1c-.4,0-.9.2-1.4.4h0v-1.4c.3,0,.7-.2,1.2-.2s1-.1,1.5-.1,1.1,0,1.5.1c.4,0,.8.3,1.1.5.3.2.5.5.7.9s.2.8.2,1.3v5.6ZM440.5,104.3v-2.3c-.4,0-.9,0-1.5.1s-1,.1-1.4.2c-.4.1-.7.3-1,.5-.2.2-.4.6-.4,1s.1.8.4,1.1c.3.2.7.4,1.3.4s.9,0,1.3-.3c.4-.2.8-.4,1.1-.7Z"/><path class="cls-7" d="M448.8,106.2c-.3,0-.5.1-.8.2-.3,0-.6,0-.8,0-.8,0-1.5-.2-1.9-.7s-.7-1.2-.7-2.2v-4.3h-.9v-1.2h.9v-2.4h1.4v2.4h2.8v1.2h-2.8v3.7c0,.4,0,.8,0,1,0,.2,0,.5.2.7.1.2.3.3.4.4.2,0,.5.1.9.1s.5,0,.7,0c.2,0,.4-.1.5-.2h0v1.2Z"/><path class="cls-7" d="M457.2,106.3h-1.4v-.9c-.5.4-.9.6-1.3.8-.4.2-.9.3-1.4.3-.9,0-1.5-.3-2-.8-.5-.5-.7-1.3-.7-2.3v-5.3h1.4v4.7c0,.4,0,.8,0,1.1,0,.3.1.5.2.8.1.2.3.4.5.5s.5.1.9.1.7,0,1.2-.3.8-.4,1.2-.7v-6.1h1.4v8.2Z"/><path class="cls-7" d="M465,99.6h0c-.2,0-.4,0-.6-.1-.2,0-.4,0-.7,0-.4,0-.8,0-1.2.3-.4.2-.8.4-1.1.7v5.8h-1.4v-8.2h1.4v1.2c.5-.4,1-.8,1.4-.9.4-.2.8-.3,1.3-.3s.4,0,.5,0c.1,0,.3,0,.5,0v1.4Z"/><path class="cls-7" d="M473.2,102.4h-6c0,.5,0,.9.2,1.3.2.4.4.7.6.9.3.2.6.4.9.5.3.1.7.2,1.2.2s1.1-.1,1.7-.3c.6-.2,1-.4,1.2-.7h0v1.5c-.5.2-.9.4-1.4.5-.5.1-1,.2-1.5.2-1.4,0-2.4-.4-3.2-1.1-.8-.7-1.1-1.8-1.1-3.1s.4-2.4,1.1-3.2,1.7-1.2,2.9-1.2,2,.3,2.6,1,.9,1.6.9,2.7v.7ZM471.8,101.3c0-.7-.2-1.3-.5-1.7-.4-.4-.9-.6-1.6-.6s-1.3.2-1.8.7c-.4.4-.7,1-.7,1.6h4.7Z"/><path class="cls-7" d="M407.6,116.7c0,.5,0,.9-.3,1.3-.2.4-.4.8-.7,1.1-.4.4-.8.7-1.3.8-.5.2-1.2.3-1.9.3h-1.5v4.1h-1.5v-10.9h3c.7,0,1.2,0,1.7.2.5.1.9.3,1.2.5.4.3.7.6,1,1,.2.4.3.9.3,1.6ZM406.1,116.7c0-.4,0-.7-.2-1s-.3-.5-.6-.7c-.2-.2-.5-.3-.8-.3-.3,0-.7,0-1.1,0h-1.4v4.4h1.2c.6,0,1.1,0,1.4-.2.4-.1.7-.3.9-.5.2-.2.4-.5.5-.7,0-.3.1-.5.1-.9Z"/><path class="cls-7" d="M415.9,120.4h-6c0,.5,0,.9.2,1.3.2.4.4.7.6.9.3.2.6.4.9.5.3.1.7.2,1.2.2s1.1-.1,1.7-.3c.6-.2,1-.4,1.2-.7h0v1.5c-.5.2-.9.4-1.4.5-.5.1-1,.2-1.5.2-1.4,0-2.4-.4-3.2-1.1-.8-.7-1.1-1.8-1.1-3.1s.4-2.4,1.1-3.2,1.7-1.2,2.9-1.2,2,.3,2.6,1,.9,1.6.9,2.7v.7ZM414.6,119.3c0-.7-.2-1.3-.5-1.7-.4-.4-.9-.6-1.6-.6s-1.3.2-1.8.7c-.4.4-.7,1-.7,1.6h4.7Z"/><path class="cls-7" d="M423.1,117.6h0c-.2,0-.4,0-.6-.1-.2,0-.4,0-.7,0-.4,0-.8,0-1.2.3-.4.2-.8.4-1.1.7v5.8h-1.4v-8.2h1.4v1.2c.5-.4,1-.8,1.4-.9.4-.2.8-.3,1.3-.3s.4,0,.5,0c.1,0,.3,0,.5,0v1.4Z"/><path class="cls-7" d="M428.6,124.2c-.3,0-.5.1-.8.2-.3,0-.6,0-.8,0-.8,0-1.5-.2-1.9-.7s-.7-1.2-.7-2.2v-4.3h-.9v-1.2h.9v-2.4h1.4v2.4h2.8v1.2h-2.8v3.7c0,.4,0,.8,0,1,0,.2,0,.5.2.7.1.2.3.3.4.4.2,0,.5.1.9.1s.5,0,.7,0c.2,0,.4-.1.5-.2h0v1.2Z"/><path class="cls-7" d="M437.1,124.3h-1.4v-.9c-.5.4-.9.6-1.3.8-.4.2-.9.3-1.4.3-.9,0-1.5-.3-2-.8-.5-.5-.7-1.3-.7-2.3v-5.3h1.4v4.7c0,.4,0,.8,0,1.1,0,.3.1.5.2.8.1.2.3.4.5.5s.5.1.9.1.7,0,1.2-.3.8-.4,1.2-.7v-6.1h1.4v8.2Z"/><path class="cls-7" d="M444.9,117.6h0c-.2,0-.4,0-.6-.1-.2,0-.4,0-.7,0-.4,0-.8,0-1.2.3-.4.2-.8.4-1.1.7v5.8h-1.4v-8.2h1.4v1.2c.5-.4,1-.8,1.4-.9.4-.2.8-.3,1.3-.3s.4,0,.5,0c.1,0,.3,0,.5,0v1.4Z"/><path class="cls-7" d="M453.4,120.2c0,.7,0,1.3-.3,1.8-.2.5-.5,1-.8,1.4-.3.4-.7.7-1.1.9-.4.2-.9.3-1.4.3s-.9,0-1.2-.2c-.3-.1-.7-.3-1-.4v.4h-1.4v-11.4h1.4v4.1c.4-.3.8-.6,1.2-.8.4-.2.9-.3,1.5-.3,1,0,1.7.4,2.3,1.1s.8,1.8.8,3.1ZM452,120.2c0-1-.2-1.7-.5-2.2-.3-.5-.8-.8-1.6-.8s-.8,0-1.2.3c-.4.2-.8.4-1.1.7v4.7c.4.2.7.3,1,.4.3,0,.6.1,1,.1.8,0,1.4-.2,1.8-.8.4-.5.6-1.3.6-2.4Z"/><path class="cls-7" d="M461.9,124.3h-1.4v-.9c-.1,0-.3.2-.5.3-.2.1-.4.3-.6.4-.2.1-.5.2-.8.3-.3,0-.6.1-1,.1-.7,0-1.4-.2-1.9-.7-.5-.5-.8-1.1-.8-1.9s.1-1.1.4-1.5c.3-.4.6-.7,1.1-.9.5-.2,1.1-.4,1.8-.4s1.4-.1,2.2-.2v-.2c0-.3,0-.6-.2-.8-.1-.2-.3-.4-.5-.5-.2-.1-.4-.2-.7-.2s-.6,0-.9,0-.8,0-1.2.1c-.4,0-.9.2-1.4.4h0v-1.4c.3,0,.7-.2,1.2-.2s1-.1,1.5-.1,1.1,0,1.5.1c.4,0,.8.3,1.1.5.3.2.5.5.7.9s.2.8.2,1.3v5.6ZM460.5,122.3v-2.3c-.4,0-.9,0-1.5.1s-1,.1-1.4.2c-.4.1-.7.3-1,.5-.2.2-.4.6-.4,1s.1.8.4,1.1c.3.2.7.4,1.3.4s.9,0,1.3-.3c.4-.2.8-.4,1.1-.7Z"/><path class="cls-7" d="M468.8,124.2c-.3,0-.5.1-.8.2-.3,0-.6,0-.8,0-.8,0-1.5-.2-1.9-.7s-.7-1.2-.7-2.2v-4.3h-.9v-1.2h.9v-2.4h1.4v2.4h2.8v1.2h-2.8v3.7c0,.4,0,.8,0,1,0,.2,0,.5.2.7.1.2.3.3.4.4.2,0,.5.1.9.1s.5,0,.7,0c.2,0,.4-.1.5-.2h0v1.2Z"/><path class="cls-7" d="M471.9,114.8h-1.6v-1.4h1.6v1.4ZM471.9,124.3h-1.4v-8.2h1.4v8.2Z"/><path class="cls-7" d="M481.6,120.2c0,1.3-.3,2.4-1,3.2s-1.6,1.2-2.7,1.2-2.1-.4-2.8-1.2c-.7-.8-1-1.8-1-3.2s.3-2.4,1-3.2c.7-.8,1.6-1.2,2.8-1.2s2.1.4,2.7,1.2c.7.8,1,1.8,1,3.2ZM480.1,120.2c0-1.1-.2-1.8-.6-2.4-.4-.5-1-.8-1.7-.8s-1.3.3-1.7.8c-.4.5-.6,1.3-.6,2.4s.2,1.8.6,2.3c.4.5,1,.8,1.7.8s1.3-.3,1.7-.8c.4-.5.6-1.3.6-2.3Z"/><path class="cls-7" d="M490.5,124.3h-1.4v-4.7c0-.4,0-.7,0-1.1,0-.3-.1-.6-.2-.8-.1-.2-.3-.4-.5-.5-.2,0-.5-.2-.9-.2s-.8,0-1.2.3-.8.4-1.2.7v6.1h-1.4v-8.2h1.4v.9c.4-.4.9-.6,1.3-.8s.9-.3,1.4-.3c.9,0,1.6.3,2,.8s.7,1.3.7,2.3v5.3Z"/><rect class="cls-2" x="120.7" y="83.5" width="109.5" height="43.7" rx="11.4" ry="11.4"/><path class="cls-7" d="M155.4,92.3h-5.5v3.1h4.7v1.3h-4.7v5.3h-1.5v-10.9h7v1.3Z"/><path class="cls-7" d="M163.4,98h-6c0,.5,0,.9.2,1.3.2.4.4.7.6.9.3.2.6.4.9.5.3.1.7.2,1.2.2s1.1-.1,1.7-.3c.6-.2,1-.4,1.2-.7h0v1.5c-.5.2-.9.4-1.4.5-.5.1-1,.2-1.5.2-1.4,0-2.4-.4-3.2-1.1-.8-.7-1.1-1.8-1.1-3.1s.4-2.4,1.1-3.2,1.7-1.2,2.9-1.2,2,.3,2.6,1,.9,1.6.9,2.7v.7ZM162.1,96.9c0-.7-.2-1.3-.5-1.7-.4-.4-.9-.6-1.6-.6s-1.3.2-1.8.7c-.4.4-.7,1-.7,1.6h4.7Z"/><path class="cls-7" d="M171.9,101.9h-1.4v-.9c-.1,0-.3.2-.5.3-.2.1-.4.3-.6.4-.2.1-.5.2-.8.3-.3,0-.6.1-1,.1-.7,0-1.4-.2-1.9-.7-.5-.5-.8-1.1-.8-1.9s.1-1.1.4-1.5c.3-.4.6-.7,1.1-.9.5-.2,1.1-.4,1.8-.4s1.4-.1,2.2-.2v-.2c0-.3,0-.6-.2-.8-.1-.2-.3-.4-.5-.5-.2-.1-.4-.2-.7-.2s-.6,0-.9,0-.8,0-1.2.1c-.4,0-.9.2-1.4.4h0v-1.4c.3,0,.7-.2,1.2-.2s1-.1,1.5-.1,1.1,0,1.5.1c.4,0,.8.3,1.1.5.3.2.5.5.7.9s.2.8.2,1.3v5.6ZM170.5,99.9v-2.3c-.4,0-.9,0-1.5.1s-1,.1-1.4.2c-.4.1-.7.3-1,.5-.2.2-.4.6-.4,1s.1.8.4,1.1c.3.2.7.4,1.3.4s.9,0,1.3-.3c.4-.2.8-.4,1.1-.7Z"/><path class="cls-7" d="M178.8,101.8c-.3,0-.5.1-.8.2-.3,0-.6,0-.8,0-.8,0-1.5-.2-1.9-.7s-.7-1.2-.7-2.2v-4.3h-.9v-1.2h.9v-2.4h1.4v2.4h2.8v1.2h-2.8v3.7c0,.4,0,.8,0,1,0,.2,0,.5.2.7.1.2.3.3.4.4.2,0,.5.1.9.1s.5,0,.7,0c.2,0,.4-.1.5-.2h0v1.2Z"/><path class="cls-7" d="M187.2,101.9h-1.4v-.9c-.5.4-.9.6-1.3.8-.4.2-.9.3-1.4.3-.9,0-1.5-.3-2-.8-.5-.5-.7-1.3-.7-2.3v-5.3h1.4v4.7c0,.4,0,.8,0,1.1,0,.3.1.5.2.8.1.2.3.4.5.5s.5.1.9.1.7,0,1.2-.3.8-.4,1.2-.7v-6.1h1.4v8.2Z"/><path class="cls-7" d="M195,95.2h0c-.2,0-.4,0-.6-.1-.2,0-.4,0-.7,0-.4,0-.8,0-1.2.3-.4.2-.8.4-1.1.7v5.8h-1.4v-8.2h1.4v1.2c.5-.4,1-.8,1.4-.9.4-.2.8-.3,1.3-.3s.4,0,.5,0c.1,0,.3,0,.5,0v1.4Z"/><path class="cls-7" d="M203.2,98h-6c0,.5,0,.9.2,1.3.2.4.4.7.6.9.3.2.6.4.9.5.3.1.7.2,1.2.2s1.1-.1,1.7-.3c.6-.2,1-.4,1.2-.7h0v1.5c-.5.2-.9.4-1.4.5-.5.1-1,.2-1.5.2-1.4,0-2.4-.4-3.2-1.1-.8-.7-1.1-1.8-1.1-3.1s.4-2.4,1.1-3.2,1.7-1.2,2.9-1.2,2,.3,2.6,1,.9,1.6.9,2.7v.7ZM201.9,96.9c0-.7-.2-1.3-.5-1.7-.4-.4-.9-.6-1.6-.6s-1.3.2-1.8.7c-.4.4-.7,1-.7,1.6h4.7Z"/><path class="cls-7" d="M134.4,119.9h-4.3v-1.1h1.4v-8.7h-1.4v-1.1h4.3v1.1h-1.4v8.7h1.4v1.1Z"/><path class="cls-7" d="M143.6,119.9h-1.4v-4.7c0-.4,0-.7,0-1.1,0-.3-.1-.6-.2-.8-.1-.2-.3-.4-.5-.5-.2,0-.5-.2-.9-.2s-.8,0-1.2.3-.8.4-1.2.7v6.1h-1.4v-8.2h1.4v.9c.4-.4.9-.6,1.3-.8s.9-.3,1.4-.3c.9,0,1.6.3,2,.8s.7,1.3.7,2.3v5.3Z"/><path class="cls-7" d="M147.7,110.4h-1.6v-1.4h1.6v1.4ZM147.7,119.9h-1.4v-8.2h1.4v8.2Z"/><path class="cls-7" d="M154.6,119.8c-.3,0-.5.1-.8.2-.3,0-.6,0-.8,0-.8,0-1.5-.2-1.9-.7s-.7-1.2-.7-2.2v-4.3h-.9v-1.2h.9v-2.4h1.4v2.4h2.8v1.2h-2.8v3.7c0,.4,0,.8,0,1,0,.2,0,.5.2.7.1.2.3.3.4.4.2,0,.5.1.9.1s.5,0,.7,0c.2,0,.4-.1.5-.2h0v1.2Z"/><path class="cls-7" d="M157.8,110.4h-1.6v-1.4h1.6v1.4ZM157.7,119.9h-1.4v-8.2h1.4v8.2Z"/><path class="cls-7" d="M166.8,119.9h-1.4v-.9c-.1,0-.3.2-.5.3-.2.1-.4.3-.6.4-.2.1-.5.2-.8.3-.3,0-.6.1-1,.1-.7,0-1.4-.2-1.9-.7-.5-.5-.8-1.1-.8-1.9s.1-1.1.4-1.5c.3-.4.6-.7,1.1-.9.5-.2,1.1-.4,1.8-.4s1.4-.1,2.2-.2v-.2c0-.3,0-.6-.2-.8-.1-.2-.3-.4-.5-.5-.2-.1-.4-.2-.7-.2s-.6,0-.9,0-.8,0-1.2.1c-.4,0-.9.2-1.4.4h0v-1.4c.3,0,.7-.2,1.2-.2s1-.1,1.5-.1,1.1,0,1.5.1c.4,0,.8.3,1.1.5.3.2.5.5.7.9s.2.8.2,1.3v5.6ZM165.4,117.9v-2.3c-.4,0-.9,0-1.5.1s-1,.1-1.4.2c-.4.1-.7.3-1,.5-.2.2-.4.6-.4,1s.1.8.4,1.1c.3.2.7.4,1.3.4s.9,0,1.3-.3c.4-.2.8-.4,1.1-.7Z"/><path class="cls-7" d="M170.8,119.9h-1.4v-11.4h1.4v11.4Z"/><path class="cls-7" d="M175,110.4h-1.6v-1.4h1.6v1.4ZM174.9,119.9h-1.4v-8.2h1.4v8.2Z"/><path class="cls-7" d="M183.6,119.9h-6.6v-1l4.8-6h-4.7v-1.2h6.4v1l-4.8,6h4.9v1.2Z"/><path class="cls-7" d="M191.9,119.9h-1.4v-.9c-.1,0-.3.2-.5.3-.2.1-.4.3-.6.4-.2.1-.5.2-.8.3-.3,0-.6.1-1,.1-.7,0-1.4-.2-1.9-.7-.5-.5-.8-1.1-.8-1.9s.1-1.1.4-1.5c.3-.4.6-.7,1.1-.9.5-.2,1.1-.4,1.8-.4s1.4-.1,2.2-.2v-.2c0-.3,0-.6-.2-.8-.1-.2-.3-.4-.5-.5-.2-.1-.4-.2-.7-.2s-.6,0-.9,0-.8,0-1.2.1c-.4,0-.9.2-1.4.4h0v-1.4c.3,0,.7-.2,1.2-.2s1-.1,1.5-.1,1.1,0,1.5.1c.4,0,.8.3,1.1.5.3.2.5.5.7.9s.2.8.2,1.3v5.6ZM190.5,117.9v-2.3c-.4,0-.9,0-1.5.1s-1,.1-1.4.2c-.4.1-.7.3-1,.5-.2.2-.4.6-.4,1s.1.8.4,1.1c.3.2.7.4,1.3.4s.9,0,1.3-.3c.4-.2.8-.4,1.1-.7Z"/><path class="cls-7" d="M198.8,119.8c-.3,0-.5.1-.8.2-.3,0-.6,0-.8,0-.8,0-1.5-.2-1.9-.7s-.7-1.2-.7-2.2v-4.3h-.9v-1.2h.9v-2.4h1.4v2.4h2.8v1.2h-2.8v3.7c0,.4,0,.8,0,1,0,.2,0,.5.2.7.1.2.3.3.4.4.2,0,.5.1.9.1s.5,0,.7,0c.2,0,.4-.1.5-.2h0v1.2Z"/><path class="cls-7" d="M201.9,110.4h-1.6v-1.4h1.6v1.4ZM201.8,119.9h-1.4v-8.2h1.4v8.2Z"/><path class="cls-7" d="M211.5,115.8c0,1.3-.3,2.4-1,3.2s-1.6,1.2-2.7,1.2-2.1-.4-2.8-1.2c-.7-.8-1-1.8-1-3.2s.3-2.4,1-3.2c.7-.8,1.6-1.2,2.8-1.2s2.1.4,2.7,1.2c.7.8,1,1.8,1,3.2ZM210.1,115.8c0-1.1-.2-1.8-.6-2.4-.4-.5-1-.8-1.7-.8s-1.3.3-1.7.8c-.4.5-.6,1.3-.6,2.4s.2,1.8.6,2.3c.4.5,1,.8,1.7.8s1.3-.3,1.7-.8c.4-.5.6-1.3.6-2.3Z"/><path class="cls-7" d="M220.5,119.9h-1.4v-4.7c0-.4,0-.7,0-1.1,0-.3-.1-.6-.2-.8-.1-.2-.3-.4-.5-.5-.2,0-.5-.2-.9-.2s-.8,0-1.2.3-.8.4-1.2.7v6.1h-1.4v-8.2h1.4v.9c.4-.4.9-.6,1.3-.8s.9-.3,1.4-.3c.9,0,1.6.3,2,.8s.7,1.3.7,2.3v5.3Z"/><line class="cls-3" x1="443.8" y1="55.5" x2="513.1" y2="55.5"/><polygon class="cls-5" points="520.2 55.5 510.2 59.5 512.6 55.5 510.2 51.4 520.2 55.5"/><line class="cls-3" x1="443.8" y1="165.5" x2="513.1" y2="165.5"/><polygon class="cls-5" points="520.2 165.5 510.2 169.5 512.6 165.5 510.2 161.4 520.2 165.5"/><line class="cls-3" x1="444.8" y1="165" x2="444.8" y2="132"/><line class="cls-3" x1="614.8" y1="55" x2="636.7" y2="55"/><polygon class="cls-5" points="643.8 55 633.9 59.1 636.2 55 633.9 50.9 643.8 55"/><line class="cls-3" x1="613.2" y1="165.5" x2="635.1" y2="165.5"/><polygon class="cls-5" points="642.2 165.5 632.2 169.5 634.6 165.5 632.2 161.4 642.2 165.5"/><line class="cls-3" x1="701.8" y1="55" x2="723.7" y2="55"/><polygon class="cls-5" points="730.8 55 720.9 59.1 723.2 55 720.9 50.9 730.8 55"/><line class="cls-3" x1="702.2" y1="165.5" x2="724.1" y2="165.5"/><polygon class="cls-5" points="731.2 165.5 721.2 169.5 723.6 165.5 721.2 161.4 731.2 165.5"/><line class="cls-3" x1="797.8" y1="55" x2="838.7" y2="55"/><polygon class="cls-5" points="845.8 55 835.9 59.1 838.2 55 835.9 50.9 845.8 55"/><line class="cls-3" x1="897.2" y1="88" x2="897.2" y2="128.9"/><polygon class="cls-5" points="897.2 136 893.1 126.1 897.2 128.4 901.2 126.1 897.2 136"/><line class="cls-3" x1="798.8" y1="165.5" x2="823.2" y2="165.5"/><line class="cls-3" x1="822.2" y1="165" x2="822.2" y2="54"/><line class="cls-1" x1="356.8" y1="97" x2="379.8" y2="97"/><path class="cls-5" d="M889.1,156.8c0,2.5-1.2,5.6-3.4,5.6s-2-1.2-2-2.7c0-2.6,1.4-5.4,3.4-5.4s1.9,1.2,1.9,2.4ZM884.7,159.7c0,.8.2,1.8,1.1,1.8,1.5,0,2.3-3.2,2.3-4.7s0-1.7-1-1.7c-1.4,0-2.3,2.7-2.3,4.6Z"/><path class="cls-5" d="M889.4,161.7c0-.4.3-.8.8-.8s.7.3.7.7-.3.8-.8.8-.7-.3-.7-.7Z"/><path class="cls-5" d="M891.6,162.2v-.7c.1,0,1.3-1,1.3-1,2.1-1.8,3.3-3,3.3-4.3s-.3-1.2-1.2-1.2-1.2.3-1.6.6l-.3-.7c.5-.4,1.4-.7,2.1-.7,1.5,0,2,1,2,1.9,0,1.7-1.5,3.1-3.4,4.6l-.7.5h0s3.3,0,3.3,0l-.2.9h-4.7Z"/><path class="cls-5" d="M900.6,162.2l.4-2.1h-3.4v-.7c.1,0,4.3-5,4.3-5h1.1l-.9,4.9h1.1l-.2.8h-1.1l-.4,2.1h-.9ZM901.2,159.3l.5-2.6c0-.4.2-.8.3-1.2h0c-.3.5-.5.9-.9,1.3l-2.2,2.5h0s2.3,0,2.3,0Z"/><path class="cls-5" d="M909.1,155.3h-2.7l-.6,2c.1,0,.2,0,.4,0,.4,0,.9.1,1.4.4.6.4.9,1,.9,1.7,0,1.9-1.5,3-3.2,3s-1.4-.2-1.7-.4l.3-.8c.3.2.8.4,1.5.4,1.1,0,2.1-.9,2.1-2s-.4-1.5-1.9-1.5-.6,0-.9,0l1.1-3.7h3.5l-.2.9Z"/><rect class="cls-4" x="843.2" y="136.5" width="108" height="58" rx="15.2" ry="15.2"/><line class="cls-3" x1="90.8" y1="105" x2="113.7" y2="105"/><polygon class="cls-5" points="120.8 105 110.9 109.1 113.2 105 110.9 100.9 120.8 105"/><line class="cls-3" x1="962.8" y1="105" x2="990.7" y2="105"/><polygon class="cls-5" points="997.8 105 987.9 109.1 990.2 105 987.9 100.9 997.8 105"/><line class="cls-3" x1="1240.8" y1="105" x2="1268.7" y2="105"/><polygon class="cls-5" points="1275.8 105 1265.9 109.1 1268.2 105 1265.9 100.9 1275.8 105"/><line class="cls-3" x1="444.8" y1="88" x2="444.8" y2="55"/><path class="cls-5" d="M773.8,154v12h-25v-12h25M775.8,152h-29v16h29v-16h0Z"/><path class="cls-5" d="M760.2,157.7c0,2.5-1.2,5.6-3.4,5.6s-2-1.2-2-2.7c0-2.6,1.4-5.4,3.4-5.4s1.9,1.2,1.9,2.4ZM755.8,160.7c0,.8.2,1.8,1.1,1.8,1.5,0,2.3-3.2,2.3-4.7s0-1.7-1-1.7c-1.4,0-2.3,2.7-2.3,4.6Z"/><path class="cls-5" d="M760.5,162.6c0-.4.3-.8.8-.8s.7.3.7.7-.3.8-.8.8-.7-.3-.7-.7Z"/><path class="cls-5" d="M763.3,162.1c.3.2.8.4,1.5.4,1.3,0,1.9-.9,1.9-1.7s-.8-1.4-1.7-1.4h-.4l.2-.8h.4c.7,0,1.9-.5,1.9-1.5s-.4-1-1.1-1-1.1.2-1.5.4l-.2-.8c.5-.3,1.2-.5,1.9-.5,1.3,0,2,.8,2,1.7s-.8,1.8-1.7,2h0c.9.2,1.3,1,1.3,1.8,0,1.5-1.3,2.6-3,2.6s-1.5-.3-1.8-.5l.3-.8Z"/><path class="cls-5" d="M773.8,168v12h-25v-12h25M775.8,166h-29v16h29v-16h0Z"/><path class="cls-5" d="M760.2,171.7c0,2.5-1.2,5.6-3.4,5.6s-2-1.2-2-2.7c0-2.6,1.4-5.4,3.4-5.4s1.9,1.2,1.9,2.4ZM755.8,174.7c0,.8.2,1.8,1.1,1.8,1.5,0,2.3-3.2,2.3-4.7s0-1.7-1-1.7c-1.4,0-2.3,2.7-2.3,4.6Z"/><path class="cls-5" d="M760.5,176.6c0-.4.3-.8.8-.8s.7.3.7.7-.3.8-.8.8-.7-.3-.7-.7Z"/><path class="cls-5" d="M768.4,170.3h-2.7l-.6,2c.1,0,.2,0,.4,0,.4,0,.9,0,1.4.4.6.4.9,1,.9,1.7,0,1.9-1.5,3-3.2,3s-1.4-.2-1.7-.4l.3-.8c.3.2.8.4,1.5.4,1.1,0,2.1-.9,2.1-2s-.4-1.5-1.9-1.5-.6,0-.9,0l1.1-3.7h3.5l-.2.9Z"/><path class="cls-5" d="M773.8,182v12h-25v-12h25M775.8,180h-29v16h29v-16h0Z"/><path class="cls-5" d="M760.2,185.7c0,2.5-1.2,5.6-3.4,5.6s-2-1.2-2-2.7c0-2.6,1.4-5.4,3.4-5.4s1.9,1.2,1.9,2.4ZM755.8,188.7c0,.8.2,1.8,1.1,1.8,1.5,0,2.3-3.2,2.3-4.7s0-1.7-1-1.7c-1.4,0-2.3,2.7-2.3,4.6Z"/><path class="cls-5" d="M760.5,190.6c0-.4.3-.8.8-.8s.7.3.7.7-.3.8-.8.8-.7-.3-.7-.7Z"/><path class="cls-5" d="M762.7,191.2v-.7c.1,0,1.3-1,1.3-1,2.1-1.8,3.3-3,3.3-4.3s-.3-1.2-1.2-1.2-1.2.3-1.6.6l-.3-.7c.5-.4,1.4-.7,2.1-.7,1.5,0,2,1,2,1.9,0,1.7-1.5,3.1-3.4,4.6l-.7.5h0s3.3,0,3.3,0l-.2.9h-4.7Z"/><path class="cls-5" d="M727.6,139.3c.5,0,1.2-.2,2-.2s1.8.2,2.3.7c.4.4.7,1,.7,1.7s-.2,1.3-.6,1.7c-.6.6-1.5.9-2.5.9s-.6,0-.8,0v3.2h-1v-8ZM728.7,143.2c.2,0,.5,0,.9,0,1.3,0,2-.6,2-1.7s-.8-1.6-1.9-1.6-.8,0-1,0v3.1Z"/><path class="cls-5" d="M733.8,143.3c0-.7,0-1.3,0-1.8h.9v1.1h0c.3-.8.9-1.3,1.6-1.3s.2,0,.3,0v1c-.1,0-.2,0-.4,0-.7,0-1.3.6-1.4,1.3,0,.1,0,.3,0,.5v3.1h-1v-4Z"/><path class="cls-5" d="M738.2,144.6c0,1.4.9,2,2,2s1.2-.1,1.6-.3l.2.7c-.4.2-1,.4-1.9.4-1.8,0-2.9-1.2-2.9-2.9s1-3.1,2.7-3.1,2.4,1.7,2.4,2.7,0,.4,0,.5h-4.1ZM741.3,143.9c0-.7-.3-1.7-1.5-1.7s-1.5,1-1.6,1.7h3.1Z"/><path class="cls-5" d="M748.6,138.8v7c0,.5,0,1.1,0,1.5h-.9v-1h0c-.3.6-1,1.1-2,1.1-1.4,0-2.5-1.2-2.5-2.9,0-1.9,1.2-3.1,2.6-3.1s1.5.4,1.7.9h0v-3.5h1ZM747.5,143.9c0-.1,0-.3,0-.5-.2-.7-.7-1.2-1.5-1.2s-1.7,1-1.7,2.2.6,2.2,1.7,2.2,1.3-.5,1.5-1.3c0-.1,0-.3,0-.5v-1Z"/><path class="cls-5" d="M751.5,139.9c0,.4-.3.7-.7.7s-.6-.3-.6-.7c0-.4.3-.7.7-.7s.6.3.7.7ZM750.4,147.3v-5.8h1v5.8h-1Z"/><path class="cls-5" d="M757.3,147.1c-.3.1-.9.3-1.7.3-1.7,0-2.9-1.2-2.9-3s1.2-3.1,3.1-3.1,1.2.2,1.5.3l-.2.8c-.3-.1-.7-.3-1.2-.3-1.3,0-2,1-2,2.2,0,1.3.9,2.2,2,2.2s1-.1,1.3-.3l.2.8Z"/><path class="cls-5" d="M760,139.9v1.7h1.5v.8h-1.5v3.1c0,.7.2,1.1.8,1.1s.5,0,.6,0v.8c-.2,0-.5.1-.9.1s-.9-.2-1.1-.4c-.3-.3-.4-.8-.4-1.5v-3.2h-.9v-.8h.9v-1.4l1-.3Z"/><path class="cls-5" d="M763.8,139.9c0,.4-.3.7-.7.7s-.6-.3-.6-.7c0-.4.3-.7.7-.7s.6.3.7.7ZM762.7,147.3v-5.8h1v5.8h-1Z"/><path class="cls-5" d="M770.7,144.4c0,2.1-1.5,3.1-2.9,3.1s-2.8-1.1-2.8-3,1.3-3.1,2.9-3.1,2.8,1.2,2.8,3ZM766.1,144.4c0,1.3.7,2.2,1.8,2.2s1.8-.9,1.8-2.3-.5-2.2-1.7-2.2-1.8,1.2-1.8,2.3Z"/><path class="cls-5" d="M772.1,143.1c0-.6,0-1.1,0-1.6h.9v1h0c.3-.5,1-1.1,1.9-1.1s2,.5,2,2.5v3.5h-1v-3.3c0-.9-.4-1.7-1.3-1.7s-1.2.5-1.4,1.1c0,.1,0,.3,0,.5v3.5h-1v-4.2Z"/><path class="cls-5" d="M786.5,144.4c0,2.1-1.5,3.1-2.9,3.1s-2.8-1.1-2.8-3,1.3-3.1,2.9-3.1,2.8,1.2,2.8,3ZM781.9,144.4c0,1.3.7,2.2,1.8,2.2s1.8-.9,1.8-2.3-.5-2.2-1.7-2.2-1.8,1.2-1.8,2.3Z"/><path class="cls-5" d="M788,147.3v-5h-.8v-.8h.8v-.3c0-.8.2-1.6.7-2,.4-.4.9-.5,1.4-.5s.7,0,.9.2v.8c-.3,0-.5-.1-.8-.1-.9,0-1.1.8-1.1,1.7v.3h1.4v.8h-1.4v5h-1Z"/><path class="cls-5" d="M794.7,141.5l.5,3.3c0,.7.2,1.1.2,1.4h0c.1-.3.3-.7.6-1.4l1.8-3.4h1.1l-3.2,5.8h-1l-1-5.8h1Z"/><path class="cls-5" d="M798.3,147.5c0-1.6.9-3.1,2.2-3.1s1.3.7,1.3,1.5c0,1.7-.9,3.3-2.2,3.3s-1.3-.7-1.3-1.7ZM801,146c0-.4,0-1-.6-1-.8,0-1.3,1.5-1.3,2.5s.1,1,.6,1c.8,0,1.3-1.7,1.3-2.6Z"/><line class="cls-3" x1="229.8" y1="105" x2="254.7" y2="105"/><polygon class="cls-5" points="261.8 105 251.9 109.1 254.2 105 251.9 100.9 261.8 105"/></g></svg>